<?xml version="1.0" encoding="UTF-8"?>
<svg version="1.1" xmlns="http://www.w3.org/2000/svg" width="119" height="124">
<path d="M0 0 C39.27 0 78.54 0 119 0 C119 40.92 119 81.84 119 124 C79.73 124 40.46 124 0 124 C0 83.08 0 42.16 0 0 Z " fill="#FEFEFE" transform="translate(0,0)"/>
<path d="M0 0 C5.53502654 4.63102507 6.61728218 12.78777512 7.24072266 19.64941406 C8.14206902 36.2170186 7.08729355 53.77664131 -3.5 67.375 C-7.10403397 71.15923567 -7.10403397 71.15923567 -10 72 C-12 72 -12 72 -14 71 C-19.72687901 63.47324473 -19.84262459 56.08560914 -19 47 C-17.0347884 33.58153518 -12.77794677 21.69153979 -6 10 C-5.39027344 8.94167969 -4.78054687 7.88335937 -4.15234375 6.79296875 C-2.79963065 4.50646789 -1.42339757 2.2429295 0 0 Z " fill="#344BA5" transform="translate(57,43)"/>
<path d="M0 0 C1.00556234 3.44764229 1.59244394 5.65782612 0.1171875 9 C-6.09031893 18.08069513 -16.60927514 23.20711731 -27 26 C-32.02494904 26.90130973 -36.83728612 27.10763464 -41.9375 27.0625 C-42.62134766 27.05798828 -43.30519531 27.05347656 -44.00976562 27.04882812 C-45.67321604 27.0371956 -47.3366205 27.01926694 -49 27 C-47.19279363 20.81276638 -44.10706933 16.85627098 -40 12 C-39.2575 11.113125 -38.515 10.22625 -37.75 9.3125 C-33.57920773 5.80524286 -28.84200621 3.46069168 -24 1 C-23.28328125 0.62488281 -22.5665625 0.24976563 -21.828125 -0.13671875 C-15.46975526 -3.13928224 -6.23918692 -3.22022551 0 0 Z " fill="#EE5645" transform="translate(108,15)"/>
<path d="M0 0 C8.99039692 2.86337984 20.55937989 8.65846489 25.1953125 17.203125 C25.59363281 18.09257813 25.59363281 18.09257813 26 19 C15.39235781 22.53588073 1.65347743 20.29848949 -8.25 15.6875 C-12.1612361 13.60394432 -15.34064689 11.63444924 -18 8 C-18.5 4.8125 -18.5 4.8125 -18 2 C-12.75414221 -1.49723852 -6.08003396 -1.07742185 0 0 Z " fill="#71CD45" transform="translate(31,24)"/>
<path d="M0 0 C5.28 0.33 10.56 0.66 16 1 C16 1.33 16 1.66 16 2 C8.08 2.495 8.08 2.495 0 3 C0 2.01 0 1.02 0 0 Z " fill="#EEB1AC" transform="translate(58,41)"/>
</svg>
