<?xml version="1.0" encoding="UTF-8"?>
<svg version="1.1" xmlns="http://www.w3.org/2000/svg" width="626" height="590">
<path d="M0 0 C206.58 0 413.16 0 626 0 C626 194.7 626 389.4 626 590 C419.42 590 212.84 590 0 590 C0 395.3 0 200.6 0 0 Z " fill="#FEFEFE" transform="translate(0,0)"/>
<path d="M0 0 C5.0383722 4.06904478 9.12372932 9.17112209 10.84765625 15.4921875 C11.37695234 21.85476763 10.65462527 27.39366706 8.84765625 33.4921875 C9.67265625 33.6984375 10.49765625 33.9046875 11.34765625 34.1171875 C20.85043901 37.85042358 27.03311708 45.10137477 31.22265625 54.2421875 C34.89352248 64.32935773 33.02630438 73.86560905 28.84765625 83.4921875 C26.99444402 86.98504475 24.66824488 89.73552156 21.84765625 92.4921875 C22.32976562 92.85570312 22.811875 93.21921875 23.30859375 93.59375 C27.41260278 96.86020617 29.86316531 99.13218125 30.84765625 104.4921875 C31.52598582 111.54681504 29.77477216 118.60151363 25.84765625 124.4921875 C25.57117071 127.30373465 25.57117071 127.30373465 25.65234375 130.47265625 C25.65878906 131.63603516 25.66523438 132.79941406 25.671875 133.99804688 C25.68863281 135.21298828 25.70539063 136.42792969 25.72265625 137.6796875 C25.73167969 138.90623047 25.74070312 140.13277344 25.75 141.39648438 C25.77359608 144.42858045 25.80651784 147.46028688 25.84765625 150.4921875 C26.50765625 150.4921875 27.16765625 150.4921875 27.84765625 150.4921875 C28.28764022 148.05511317 28.72515751 145.61765405 29.16015625 143.1796875 C29.29478271 142.42582764 29.42940918 141.67196777 29.56811523 140.89526367 C30.30574404 136.71765299 31.00519623 132.53759687 31.64453125 128.34375 C31.83728638 127.08171753 31.83728638 127.08171753 32.03393555 125.79418945 C32.27962659 124.16841947 32.52087455 122.5419701 32.75708008 120.91479492 C32.92759888 119.78714722 32.92759888 119.78714722 33.1015625 118.63671875 C33.19767822 117.98034424 33.29379395 117.32396973 33.39282227 116.64770508 C33.98417644 113.84520053 34.9075699 111.19496585 35.84765625 108.4921875 C40.25032235 108.46669095 44.65294483 108.4489702 49.05566406 108.43725586 C50.54069774 108.43235215 52.02572698 108.42563132 53.51074219 108.41674805 C62.5666584 108.36409737 71.58256523 108.53442526 80.62890625 108.9609375 C96.85556335 109.71259053 113.09483056 109.83161653 129.33563232 110.02441406 C133.58055835 110.07557142 137.82543212 110.13075421 142.0703125 110.18554688 C150.32938231 110.29158689 158.5884972 110.39334221 166.84765625 110.4921875 C164.2768405 123.57135279 161.55001836 136.60507003 158.66015625 149.6171875 C157.87203358 153.17801908 157.085846 156.73927429 156.30078125 160.30078125 C156.10078018 161.2080043 155.90077911 162.11522736 155.69471741 163.04994202 C154.21349506 169.7867374 152.7654493 176.53022762 151.33203125 183.27734375 C151.12781052 184.23739319 150.92358978 185.19744263 150.71318054 186.18658447 C149.72656897 190.82739237 148.74398742 195.46900565 147.7668457 200.11181641 C147.40979431 201.79462317 147.0526229 203.47740447 146.6953125 205.16015625 C146.53734192 205.9177272 146.37937134 206.67529816 146.21661377 207.45582581 C145.33751398 211.57831004 144.21079842 215.50708029 142.84765625 219.4921875 C123.59777684 219.67338637 104.34776819 219.83792146 85.09765625 219.9921875 C84.3574066 219.99813604 83.61715695 220.00408458 82.8544755 220.01021338 C25.66451674 220.46859304 -31.52319104 220.58046298 -88.71484375 220.5546875 C-90.16888265 220.55405115 -90.16888265 220.55405115 -91.65229607 220.55340195 C-116.48565499 220.54234889 -141.31900067 220.52230131 -166.15234375 220.4921875 C-165.53784378 217.15395793 -164.80673546 214.47009258 -163.15234375 211.4921875 C-162.22639404 211.45778564 -161.30044434 211.42338379 -160.34643555 211.38793945 C-141.01364687 210.62587573 -121.81216657 209.35246078 -102.58984375 207.1171875 C-101.28265884 206.96873886 -101.28265884 206.96873886 -99.94906616 206.81729126 C-89.34592568 205.60097247 -78.89670837 204.02718688 -68.45787048 201.78115845 C-60.01377353 200.03895662 -52.8696151 199.20481453 -45.15234375 203.4921875 C-41.41462541 204.2058599 -41.41462541 204.2058599 -38.15234375 204.4921875 C-39.16825796 199.02354293 -40.22325432 193.72828737 -42.15234375 188.4921875 C-40.92238426 189.4077901 -39.69341989 190.32472953 -38.46484375 191.2421875 C-37.73265625 191.78746094 -37.00046875 192.33273437 -36.24609375 192.89453125 C-34.60933294 194.14347747 -33.02547246 195.46182093 -31.46484375 196.8046875 C-28.96808748 198.62664478 -27.19582275 199.14436133 -24.15234375 199.4921875 C-24.48234375 196.8521875 -24.81234375 194.2121875 -25.15234375 191.4921875 C-22.1882987 194.30023018 -19.70735356 196.67534524 -18.15234375 200.4921875 C-17.49234375 200.4921875 -16.83234375 200.4921875 -16.15234375 200.4921875 C-16.15234375 201.1521875 -16.15234375 201.8121875 -16.15234375 202.4921875 C-13.18234375 203.4821875 -13.18234375 203.4821875 -10.15234375 204.4921875 C-12.10892757 191.7743927 -22.03420476 181.93655712 -30.15234375 172.4921875 C-30.74789062 171.73808594 -31.3434375 170.98398437 -31.95703125 170.20703125 C-40.90191874 159.10081928 -53.77261409 154.46333808 -67.40234375 151.875 C-87.92931537 149.77953831 -107.99833572 151.92667794 -127.66162109 157.95385742 C-128.39461426 158.1676001 -129.12760742 158.38134277 -129.8828125 158.6015625 C-130.83256958 158.89498535 -130.83256958 158.89498535 -131.80151367 159.19433594 C-137.97518908 159.97654427 -144.11721485 158.11555665 -149.9921875 156.3828125 C-150.71741104 156.17412537 -151.44263458 155.96543823 -152.18983459 155.75042725 C-154.49150475 155.08662424 -156.79066158 154.41455093 -159.08984375 153.7421875 C-160.59554627 153.30674891 -162.10140482 152.87184949 -163.60742188 152.4375 C-173.79965079 149.49174944 -183.97402159 146.48581166 -194.15234375 143.4921875 C-194.15234375 162.6321875 -194.15234375 181.7721875 -194.15234375 201.4921875 C-196.59843346 199.04609779 -196.41666846 198.35985936 -196.47119141 194.99829102 C-196.4910611 194.06714981 -196.51093079 193.13600861 -196.53140259 192.176651 C-196.5429538 191.16831711 -196.554505 190.15998322 -196.56640625 189.12109375 C-196.5857724 188.08782455 -196.60513855 187.05455536 -196.62509155 185.98997498 C-196.68499678 182.67829727 -196.73128855 179.36658398 -196.77734375 176.0546875 C-196.81551862 173.82485442 -196.85457006 171.59503616 -196.89453125 169.36523438 C-197.15234375 154.60007154 -197.15234375 154.60007154 -197.15234375 149.4921875 C-196.82234375 149.8221875 -196.49234375 150.1521875 -196.15234375 150.4921875 C-195.65734375 146.5321875 -195.65734375 146.5321875 -195.15234375 142.4921875 C-198.12234375 142.1621875 -201.09234375 141.8321875 -204.15234375 141.4921875 C-204.64734375 142.4821875 -204.64734375 142.4821875 -205.15234375 143.4921875 C-206.71484375 142.3046875 -206.71484375 142.3046875 -208.15234375 140.4921875 C-207.77147962 136.70671212 -206.64269321 134.35382674 -204.37890625 131.33984375 C-203.80696533 130.57051514 -203.23502441 129.80118652 -202.64575195 129.00854492 C-202.02917725 128.19877197 -201.41260254 127.38899902 -200.77734375 126.5546875 C-200.14465576 125.71075439 -199.51196777 124.86682129 -198.86010742 123.99731445 C-193.82849589 117.31152657 -188.69256934 110.71049865 -183.47900391 104.16601562 C-182.11400356 102.44381423 -180.76239359 100.71183926 -179.4140625 98.9765625 C-173.9549382 91.95823974 -168.3694034 85.07618392 -162.57421875 78.33203125 C-161.18300755 76.70072392 -159.80766366 75.05489477 -158.48046875 73.37109375 C-148.17837289 60.37772004 -131.03916058 54.82243151 -115.15234375 52.4921875 C-113.20826423 52.41566837 -111.26196297 52.38407127 -109.31640625 52.39453125 C-108.25292969 52.39775391 -107.18945312 52.40097656 -106.09375 52.40429688 C-104.45212891 52.41686523 -104.45212891 52.41686523 -102.77734375 52.4296875 C-101.65972656 52.43419922 -100.54210937 52.43871094 -99.390625 52.44335938 C-96.64447571 52.45509506 -93.89843789 52.47151387 -91.15234375 52.4921875 C-91.47460938 51.30238281 -91.796875 50.11257812 -92.12890625 48.88671875 C-95.18835834 36.57580844 -92.49188797 26.3082028 -86.52734375 15.4296875 C-78.38333679 2.6464328 -65.04002144 -7.09605303 -50.15234375 -10.5078125 C-32.70596935 -13.85369252 -14.60279295 -10.22990577 0 0 Z " fill="#FBFBFB" transform="translate(386.15234375,190.5078125)"/>
<path d="M0 0 C4.4026661 -0.02549655 8.80528858 -0.0432173 13.20800781 -0.05493164 C14.69304149 -0.05983535 16.17807073 -0.06655618 17.66308594 -0.07543945 C26.71900215 -0.12809013 35.73490898 0.04223776 44.78125 0.46875 C61.0079071 1.22040303 77.24717431 1.33942903 93.48797607 1.53222656 C97.7329021 1.58338392 101.97777587 1.63856671 106.22265625 1.69335938 C114.48172606 1.79939939 122.74084095 1.90115471 131 2 C128.42918425 15.07916529 125.70236211 28.11288253 122.8125 41.125 C122.02437733 44.68583158 121.23818975 48.24708679 120.453125 51.80859375 C120.25312393 52.7158168 120.05312286 53.62303986 119.84706116 54.55775452 C118.36583881 61.2945499 116.91779305 68.03804012 115.484375 74.78515625 C115.28015427 75.74520569 115.07593353 76.70525513 114.86552429 77.69439697 C113.87891272 82.33520487 112.89633117 86.97681815 111.91918945 91.61962891 C111.56213806 93.30243567 111.20496665 94.98521697 110.84765625 96.66796875 C110.68968567 97.4255397 110.53171509 98.18311066 110.36895752 98.96363831 C109.48985773 103.08612254 108.36314217 107.01489279 107 111 C87.75012059 111.18119887 68.50011194 111.34573396 49.25 111.5 C48.50975035 111.50594854 47.7695007 111.51189708 47.00681925 111.51802588 C-10.18313951 111.97640554 -67.37084729 112.08827548 -124.5625 112.0625 C-126.0165389 112.06186365 -126.0165389 112.06186365 -127.49995232 112.06121445 C-152.33331124 112.05016139 -177.16665692 112.03011381 -202 112 C-201.38550003 108.66177043 -200.65439171 105.97790508 -199 103 C-198.07405029 102.96559814 -197.14810059 102.93119629 -196.1940918 102.89575195 C-176.86130312 102.13368823 -157.65982282 100.86027328 -138.4375 98.625 C-137.5660434 98.52603424 -136.69458679 98.42706848 -135.79672241 98.32510376 C-125.19358193 97.10878497 -114.74436462 95.53499938 -104.30552673 93.28897095 C-94.78432798 91.32453947 -87.46823967 90.9817839 -79 96 C-79 98.31 -79 100.62 -79 103 C-72.56272055 102.8810322 -66.12557132 102.75625538 -59.68847656 102.62768555 C-57.50458242 102.58472211 -55.32066293 102.54302529 -53.13671875 102.50268555 C-41.39674491 102.28497999 -29.70050529 102.05555809 -18 101 C-17.887771 100.18289551 -17.77554199 99.36579102 -17.65991211 98.52392578 C-15.23883293 81.03274622 -12.42140206 63.63708104 -8.86279297 46.34033203 C-7.15459812 37.97083682 -5.69664802 29.57414982 -4.34375 21.14038086 C-1.82291865 5.46875594 -1.82291865 5.46875594 0 0 Z " fill="#010101" transform="translate(422,299)"/>
<path d="M0 0 C5.0383722 4.06904478 9.12372932 9.17112209 10.84765625 15.4921875 C11.37695234 21.85476763 10.65462527 27.39366706 8.84765625 33.4921875 C9.67265625 33.6984375 10.49765625 33.9046875 11.34765625 34.1171875 C20.85043901 37.85042358 27.03311708 45.10137477 31.22265625 54.2421875 C34.89352248 64.32935773 33.02630438 73.86560905 28.84765625 83.4921875 C26.99444402 86.98504475 24.66824488 89.73552156 21.84765625 92.4921875 C22.32976562 92.85570312 22.811875 93.21921875 23.30859375 93.59375 C27.41260278 96.86020617 29.86316531 99.13218125 30.84765625 104.4921875 C31.41712221 110.41463351 30.27951026 116.07496046 27.84765625 121.4921875 C25.73828125 123.79296875 25.73828125 123.79296875 23.84765625 125.4921875 C23.65171875 124.3784375 23.45578125 123.2646875 23.25390625 122.1171875 C19.81292252 104.01557606 13.09166814 88.82601977 -2.15234375 77.6171875 C-10.89393252 71.8922513 -20.13461106 69.17118287 -30.15234375 66.4921875 C-30.28511719 67.60722656 -30.41789062 68.72226562 -30.5546875 69.87109375 C-31.13847094 73.4081346 -31.36613266 74.43281409 -34.15234375 76.4921875 C-33.82234375 75.4196875 -33.49234375 74.3471875 -33.15234375 73.2421875 C-31.98056865 69.49487149 -31.98056865 69.49487149 -32.15234375 65.4921875 C-33.47234375 64.8321875 -34.79234375 64.1721875 -36.15234375 63.4921875 C-35.65734375 62.0071875 -35.65734375 62.0071875 -35.15234375 60.4921875 C-34.45109375 60.7809375 -33.74984375 61.0696875 -33.02734375 61.3671875 C-32.07859375 61.7384375 -31.12984375 62.1096875 -30.15234375 62.4921875 C-28.82203125 63.0490625 -28.82203125 63.0490625 -27.46484375 63.6171875 C-22.96264856 64.80644661 -18.76204737 65.39107971 -14.15234375 64.4921875 C-10.92209553 62.16494049 -9.40524452 59.25088981 -8.15234375 55.4921875 C-8.06752602 52.90588526 -8.03636146 50.34740694 -8.0546875 47.76171875 C-8.05610245 47.01129807 -8.0575174 46.26087738 -8.05897522 45.48771667 C-8.06456815 43.0933329 -8.07711931 40.69904297 -8.08984375 38.3046875 C-8.09485967 36.68033989 -8.09942241 35.05599082 -8.10351562 33.43164062 C-8.11453527 29.45178681 -8.13179502 25.47200306 -8.15234375 21.4921875 C-9.41925049 21.51563232 -10.68615723 21.53907715 -11.99145508 21.56323242 C-15.72691096 21.63235914 -17.76513234 21.06099143 -20.83984375 18.8046875 C-21.58492188 18.25941406 -22.33 17.71414062 -23.09765625 17.15234375 C-25.68982332 15.05791218 -27.97540338 13.02024729 -30.15234375 10.4921875 C-30.15234375 9.8321875 -30.15234375 9.1721875 -30.15234375 8.4921875 C-30.81234375 8.4921875 -31.47234375 8.4921875 -32.15234375 8.4921875 C-32.16652344 9.0490625 -32.18070312 9.6059375 -32.1953125 10.1796875 C-32.57938924 16.32491539 -34.19696476 20.72515559 -38.15234375 25.4921875 C-41.33385544 27.61319529 -43.65141006 28.16610822 -47.3125 28.9296875 C-49.37641489 29.40327857 -49.37641489 29.40327857 -51.15234375 31.4921875 C-51.98881861 34.77731872 -51.98881861 34.77731872 -51.15234375 38.4921875 C-48.75343784 41.19488498 -46.05966084 43.35712652 -43.15234375 45.4921875 C-45.29241627 50.668698 -49.32401904 52.95880725 -54.15234375 55.4921875 C-57.17884242 56.45847924 -60.00030865 56.99186447 -63.15234375 57.4921875 C-63.15234375 61.4521875 -63.15234375 65.4121875 -63.15234375 69.4921875 C-63.48234375 69.4921875 -63.81234375 69.4921875 -64.15234375 69.4921875 C-64.15234375 65.5321875 -64.15234375 61.5721875 -64.15234375 57.4921875 C-65.47234375 57.3890625 -66.79234375 57.2859375 -68.15234375 57.1796875 C-75.56873952 56.45300895 -82.84845961 54.93302817 -90.15234375 53.4921875 C-94.31262341 43.26483333 -94.69443703 33.39251515 -90.40234375 23.109375 C-83.07839606 7.77485952 -72.02529046 -2.11129336 -56.46875 -8.6328125 C-37.71972786 -15.20919801 -16.13615054 -11.30409094 0 0 Z " fill="#020202" transform="translate(386.15234375,190.5078125)"/>
<path d="M0 0 C4.39300202 3.88950609 6.46252948 9.57070439 7.359375 15.29296875 C7.47858586 18.46993827 7.3844104 20.49257827 5.4375 23.0625 C3.65509608 25.01536761 3.65509608 25.01536761 4.28125 28.09375 C5.04819771 32.26194408 6.00071755 36.33669359 7.0625 40.4375 C7.24876953 41.16904297 7.43503906 41.90058594 7.62695312 42.65429688 C8.0813758 44.43703198 8.54022466 46.21863787 9 48 C9.33 48 9.66 48 10 48 C10.29003906 46.06447266 10.29003906 46.06447266 10.5859375 44.08984375 C10.84872195 42.37235965 11.11175604 40.65491373 11.375 38.9375 C11.50132813 38.08994141 11.62765625 37.24238281 11.7578125 36.36914062 C12.51909962 31.43980654 13.51380132 26.76229751 15 22 C15.33 22 15.66 22 16 22 C15.52725558 26.62547973 14.99950101 31.20636049 14.2109375 35.7890625 C14.07429688 36.58570313 13.93765625 37.38234375 13.796875 38.203125 C13.51407201 39.82662364 13.22493682 41.44903115 12.9296875 43.0703125 C12.795625 43.864375 12.6615625 44.6584375 12.5234375 45.4765625 C12.39888184 46.17861816 12.27432617 46.88067383 12.14599609 47.60400391 C11.87174337 50.78027715 11.87174337 50.78027715 13 57 C19.93 57 26.86 57 34 57 C33.33397396 62.99423435 32.65597895 67.95588939 31.15234375 73.66015625 C30.97619034 74.33549911 30.80003693 75.01084198 30.61854553 75.70664978 C30.06409151 77.82686707 29.50098247 79.94466648 28.9375 82.0625 C28.55606086 83.51482181 28.17519674 84.96729478 27.79492188 86.41992188 C26.87095263 89.94871944 25.93526791 93.47410388 25 97 C31.93 97.33 38.86 97.66 46 98 C46 98.66 46 99.32 46 100 C21.91 100 -2.18 100 -27 100 C-27 99.34 -27 98.68 -27 98 C-19.41 97.67 -11.82 97.34 -4 97 C-4.97453125 93.42285156 -4.97453125 93.42285156 -5.96875 89.7734375 C-6.5960443 87.4505138 -7.2207508 85.12690859 -7.84521484 82.80322266 C-8.27903855 81.19441931 -8.71552944 79.58633263 -9.15478516 77.97900391 C-9.78738568 75.6623376 -10.41020236 73.3432239 -11.03125 71.0234375 C-11.22811401 70.31069672 -11.42497803 69.59795593 -11.62780762 68.86361694 C-12.75022693 64.62618918 -13 61.5046195 -13 57 C-6.73 57 -0.46 57 6 57 C4.2365625 53.101875 4.2365625 53.101875 2.4375 49.125 C2.08357178 48.30789551 1.72964355 47.49079102 1.36499023 46.64892578 C-0.55764093 42.61618801 -1.24928467 41.27342864 -5.625 39.6796875 C-6.73875 39.45539063 -7.8525 39.23109375 -9 39 C-13 34.07692308 -13 34.07692308 -13 31 C-12.01 31 -11.02 31 -10 31 C-10 30.01 -10 29.02 -10 28 C-9.01 28 -8.02 28 -7 28 C-7.42880399 25.59869765 -7.88597901 24.14537676 -9.40625 22.20703125 C-11.21488707 19.70242355 -12.15517474 17.34462286 -13.1875 14.4375 C-13.53167969 13.48746094 -13.87585938 12.53742188 -14.23046875 11.55859375 C-15 9 -15 9 -15 6 C-13.35 6 -11.7 6 -10 6 C-9.34 4.68 -8.68 3.36 -8 2 C-6.02 2.66 -4.04 3.32 -2 4 C-1.34 2.68 -0.68 1.36 0 0 Z " fill="#A6A6A6" transform="translate(100,312)"/>
<path d="M0 0 C2 2 2 2 2.22705078 4.33837891 C2.21657715 5.29147949 2.20610352 6.24458008 2.1953125 7.2265625 C2.18886719 8.2578125 2.18242187 9.2890625 2.17578125 10.3515625 C2.15064453 11.97191406 2.15064453 11.97191406 2.125 13.625 C2.11597656 14.71296875 2.10695313 15.8009375 2.09765625 16.921875 C2.07403409 19.61480152 2.04109556 22.30729255 2 25 C2.66 25 3.32 25 4 25 C4.33 24.34 4.66 23.68 5 23 C3.79819878 31.52330073 2.26686261 39.94959512 0.60473633 48.39282227 C-0.38740441 53.51698033 -1.27046573 58.64253251 -2.04296875 63.8046875 C-2.21393066 64.93938477 -2.38489258 66.07408203 -2.56103516 67.24316406 C-2.89047863 69.46490265 -3.20949367 71.68821741 -3.51708984 73.91308594 C-3.66742676 74.9240332 -3.81776367 75.93498047 -3.97265625 76.9765625 C-4.09906494 77.87455566 -4.22547363 78.77254883 -4.35571289 79.69775391 C-5.11760364 82.42023581 -5.77842984 83.27536075 -8 85 C-10.51531982 85.50828552 -10.51531982 85.50828552 -13.47167969 85.68139648 C-14.5446228 85.74567841 -15.61756592 85.80996033 -16.72302246 85.87619019 C-21.63626995 86.06182108 -26.536686 86.12392092 -31.453125 86.09765625 C-32.47935974 86.0962413 -33.50559448 86.09482635 -34.56292725 86.09336853 C-37.79198309 86.0878388 -41.02096565 86.07530021 -44.25 86.0625 C-46.4596344 86.05747589 -48.66926991 86.0529146 -50.87890625 86.04882812 C-56.25262853 86.03789254 -61.62630903 86.02122638 -67 86 C-67 83.69 -67 81.38 -67 79 C-65.35 79 -63.7 79 -62 79 C-63.01591421 73.53135543 -64.07091057 68.23609987 -66 63 C-64.77004051 63.9156026 -63.54107614 64.83254203 -62.3125 65.75 C-61.21421875 66.56791016 -61.21421875 66.56791016 -60.09375 67.40234375 C-58.45698919 68.65128997 -56.87312871 69.96963343 -55.3125 71.3125 C-52.81574373 73.13445728 -51.043479 73.65217383 -48 74 C-48.33 71.36 -48.66 68.72 -49 66 C-46.03595495 68.80804268 -43.55500981 71.18315774 -42 75 C-41.34 75 -40.68 75 -40 75 C-40 75.66 -40 76.32 -40 77 C-38.02 77.66 -36.04 78.32 -34 79 C-35.81460882 67.20504266 -44.4005485 58.22807173 -51.99609375 49.49609375 C-54 47 -54 47 -55 44 C-54.01 44.33 -53.02 44.66 -52 45 C-49.65556486 44.64921097 -49.65556486 44.64921097 -47.06958008 43.92016602 C-46.06876907 43.65982071 -45.06795807 43.3994754 -44.03681946 43.13124084 C-42.95861435 42.84172043 -41.88040924 42.55220001 -40.76953125 42.25390625 C-39.66397385 41.96394272 -38.55841644 41.67397919 -37.4193573 41.37522888 C-33.8816324 40.44544051 -30.34709342 39.50411511 -26.8125 38.5625 C-24.41751829 37.93087958 -22.02233828 37.30001054 -19.62695312 36.66992188 C-13.7489716 35.1219993 -7.873566 33.56458852 -2 32 C-1.32201913 27.60156896 -0.84487579 23.29443236 -0.68359375 18.84765625 C-0.64169922 17.74228516 -0.59980469 16.63691406 -0.55664062 15.49804688 C-0.51732422 14.36431641 -0.47800781 13.23058594 -0.4375 12.0625 C-0.37272461 10.32129883 -0.37272461 10.32129883 -0.30664062 8.54492188 C-0.20115158 5.69671768 -0.09903445 2.84843471 0 0 Z " fill="#F9F9F9" transform="translate(410,316)"/>
<path d="M0 0 C5.4240016 2.81468235 10.06565613 7.53290588 12.00390625 13.34765625 C12.80181695 19.76513799 12.22590679 24.35614281 8.4296875 29.66015625 C4.11030431 34.77241252 -0.2033097 37.07295618 -6.80859375 37.72265625 C-12.16270463 37.56102271 -16.61170548 35.55095174 -20.5390625 31.921875 C-24.73849654 27.15594839 -26.50131594 22.8487662 -26.30859375 16.46484375 C-25.53036831 11.19236639 -22.9995745 6.93759771 -18.99609375 3.47265625 C-13.00763415 -0.7691693 -7.24242208 -2.36689724 0 0 Z " fill="#232323" transform="translate(484.99609375,332.65234375)"/>
<path d="M0 0 C13.53 0 27.06 0 41 0 C38.75 12.375 38.75 12.375 37.4921875 16.88671875 C37.2535498 17.75256592 37.01491211 18.61841309 36.76904297 19.51049805 C36.47400879 20.55890869 36.17897461 21.60731934 35.875 22.6875 C34.92625 26.090625 33.9775 29.49375 33 33 C24.75 33 16.5 33 8 33 C7.05125 29.7 6.1025 26.4 5.125 23 C4.82996582 21.97648437 4.53493164 20.95296875 4.23095703 19.8984375 C0 5.13436867 0 5.13436867 0 0 Z " fill="#FDFDFD" transform="translate(90,377)"/>
<path d="M0 0 C4.39300202 3.88950609 6.46252948 9.57070439 7.359375 15.29296875 C7.52557416 19.72217647 6.55384139 21.59487815 4 25 C3.626409 31.06418245 4.5443784 36.32075484 6 42.1875 C8.2860085 51.54005503 8.2860085 51.54005503 8 56 C7.67 55.34 7.34 54.68 7 54 C6.34 54 5.68 54 5 54 C4.57589844 53.08476562 4.15179688 52.16953125 3.71484375 51.2265625 C3.12365658 50.02542032 2.53113771 48.82493294 1.9375 47.625 C1.36902344 46.44164062 0.80054687 45.25828125 0.21484375 44.0390625 C-2.55249835 40.2418982 -4.52369117 40.01640957 -9 39 C-13 34.07692308 -13 34.07692308 -13 31 C-12.01 31 -11.02 31 -10 31 C-10 30.01 -10 29.02 -10 28 C-9.01 28 -8.02 28 -7 28 C-7.42880399 25.59869765 -7.88597901 24.14537676 -9.40625 22.20703125 C-11.21488707 19.70242355 -12.15517474 17.34462286 -13.1875 14.4375 C-13.53167969 13.48746094 -13.87585938 12.53742188 -14.23046875 11.55859375 C-15 9 -15 9 -15 6 C-13.35 6 -11.7 6 -10 6 C-9.34 4.68 -8.68 3.36 -8 2 C-6.02 2.66 -4.04 3.32 -2 4 C-1.34 2.68 -0.68 1.36 0 0 Z " fill="#E3E3E3" transform="translate(100,312)"/>
<path d="M0 0 C0.88375616 -0.00085442 1.76751232 -0.00170885 2.67804897 -0.00258917 C5.6568767 -0.00424404 8.63564884 0.00127754 11.61447144 0.00672913 C13.74281818 0.00701102 15.87116503 0.00685322 17.99951172 0.00628662 C23.79260542 0.00599874 29.58567858 0.01189395 35.37876749 0.01886058 C41.42729495 0.02509569 47.47582285 0.02569804 53.52435303 0.02688599 C64.984898 0.02999884 76.44543348 0.03821161 87.90597427 0.04823548 C100.95051123 0.05939804 113.99504863 0.06490743 127.03958917 0.06993091 C153.8794966 0.08039425 180.7193956 0.09799281 207.55929565 0.12025452 C207.22929565 0.78025452 206.89929565 1.44025452 206.55929565 2.12025452 C194.97622064 2.30652284 183.39288656 2.46977507 171.80929565 2.62025452 C170.89581738 2.63213177 169.9823391 2.64400902 169.04117966 2.65624619 C127.40178596 3.18982401 85.76379485 3.20550295 44.12179565 3.18275452 C43.32238367 3.18233028 42.52297169 3.18190605 41.6993351 3.18146896 C20.98597687 3.17029222 0.27263578 3.15002626 -20.44070435 3.12025452 C-20.44070435 2.79025452 -20.44070435 2.46025452 -20.44070435 2.12025452 C-19.39269653 2.02937561 -19.39269653 2.02937561 -18.32351685 1.93666077 C-17.41343872 1.8528717 -16.5033606 1.76908264 -15.56570435 1.68275452 C-14.66078247 1.60154358 -13.7558606 1.52033264 -12.82351685 1.43666077 C-1.95289204 -0.00681564 -1.95289204 -0.00681564 0 0 Z " fill="#202020" transform="translate(272.4407043457031,407.87974548339844)"/>
<path d="M0 0 C1.22995949 0.9156026 2.45892386 1.83254203 3.6875 2.75 C4.4196875 3.29527344 5.151875 3.84054687 5.90625 4.40234375 C7.54301081 5.65128997 9.12687129 6.96963343 10.6875 8.3125 C13.18425627 10.13445728 14.956521 10.65217383 18 11 C17.67 8.36 17.34 5.72 17 3 C19.96404505 5.80804268 22.44499019 8.18315774 24 12 C24.66 12 25.32 12 26 12 C26 12.66 26 13.32 26 14 C27.98 14.66 29.96 15.32 32 16 C31.34 12.7 30.68 9.4 30 6 C33.52844977 9.52844977 33.64728672 11.15019246 34 16 C33.67 16.66 33.34 17.32 33 18 C41.30812204 19.74640116 49.52902072 20.53007706 58 21 C58 21.33 58 21.66 58 22 C50.16061482 22.75953396 42.42113953 23.13972226 34.546875 23.09765625 C33.52064026 23.0962413 32.49440552 23.09482635 31.43707275 23.09336853 C28.20801691 23.0878388 24.97903435 23.07530021 21.75 23.0625 C19.5403656 23.05747589 17.33073009 23.0529146 15.12109375 23.04882812 C9.74737147 23.03789254 4.37369097 23.02122638 -1 23 C-1 20.69 -1 18.38 -1 16 C0.65 16 2.3 16 4 16 C2.98408579 10.53135543 1.92908943 5.23609987 0 0 Z " fill="#EBEBEB" transform="translate(344,379)"/>
<path d="M0 0 C1.32 0.66 2.64 1.32 4 2 C4 2.66 4 3.32 4 4 C5.98 3.34 7.96 2.68 10 2 C10.33 3.32 10.66 4.64 11 6 C12.98 6 14.96 6 17 6 C15.26375242 12.4188547 13.14819255 18.13784836 10 24 C9.34 24 8.68 24 8 24 C8 24.66 8 25.32 8 26 C5.36 26 2.72 26 0 26 C-0.66 28.97 -1.32 31.94 -2 35 C-2.33 35 -2.66 35 -3 35 C-2.82210937 34.02160156 -2.82210937 34.02160156 -2.640625 33.0234375 C-1.70417561 26.67431062 -2.21389386 24.32421177 -6 19 C-6.13565179 12.21741039 -2.71078958 6.09177436 0 0 Z " fill="#E2E2E2" transform="translate(119,299)"/>
<path d="M0 0 C14.85 0 29.7 0 45 0 C44.67 1.98 44.34 3.96 44 6 C29.81 6 15.62 6 1 6 C0.67 4.02 0.34 2.04 0 0 Z " fill="#FBFBFB" transform="translate(88,370)"/>
<path d="M0 0 C2.97 0 5.94 0 9 0 C14.76595745 20.53191489 14.76595745 20.53191489 15 30 C14.67 29.34 14.34 28.68 14 28 C13.34 28 12.68 28 12 28 C11.57589844 27.08476562 11.15179688 26.16953125 10.71484375 25.2265625 C10.12365658 24.02542032 9.53113771 22.82493294 8.9375 21.625 C8.36902344 20.44164062 7.80054687 19.25828125 7.21484375 18.0390625 C4.44750165 14.2418982 2.47630883 14.01640957 -2 13 C-6 8.07692308 -6 8.07692308 -6 5 C-5.01 5 -4.02 5 -3 5 C-3 4.01 -3 3.02 -3 2 C-2.01 2 -1.02 2 0 2 C0 1.34 0 0.68 0 0 Z " fill="#EAEAEA" transform="translate(93,338)"/>
<path d="M0 0 C5.76085097 0.59487048 11.09469636 1.69326173 16.65625 3.28515625 C17.83785706 3.6159745 17.83785706 3.6159745 19.04333496 3.95347595 C21.5304373 4.65111588 24.01521374 5.35666058 26.5 6.0625 C28.1977685 6.54024039 29.89568394 7.01745894 31.59375 7.49414062 C35.7308889 8.65673771 39.86596276 9.82642382 44 11 C44.33 10.34 44.66 9.68 45 9 C45 9.66 45 10.32 45 11 C46.0415625 10.67386719 47.083125 10.34773438 48.15625 10.01171875 C74.46107762 1.93125189 103.70453603 -2.62130505 130 8 C126.44206755 9.18597748 125.27337948 8.69776079 121.75 7.625 C99.67483038 0.95256172 74.15843667 4.82009407 52.49072266 11.46166992 C51.75772949 11.6754126 51.02473633 11.88915527 50.26953125 12.109375 C49.63635986 12.30499023 49.00318848 12.50060547 48.35083008 12.70214844 C42.01961423 13.50431723 35.69840929 11.53387399 29.66796875 9.78515625 C28.90954178 9.5693541 28.15111481 9.35355194 27.3697052 9.13121033 C25.78152837 8.67769262 24.19418684 8.2212402 22.60766602 7.76196289 C20.17894091 7.0600263 17.74698616 6.37025041 15.31445312 5.68164062 C13.76541896 5.23769747 12.21658342 4.79306055 10.66796875 4.34765625 C9.94296677 4.14237808 9.21796478 3.93709991 8.47099304 3.7256012 C5.24371549 2.78408409 2.82219853 1.88146569 0 0 Z " fill="#969696" transform="translate(206,337)"/>
<path d="M0 0 C2 2 2 2 2.22705078 4.33837891 C2.21657715 5.29147949 2.20610352 6.24458008 2.1953125 7.2265625 C2.18886719 8.2578125 2.18242187 9.2890625 2.17578125 10.3515625 C2.15902344 11.43179687 2.14226562 12.51203125 2.125 13.625 C2.11597656 14.71296875 2.10695313 15.8009375 2.09765625 16.921875 C2.07403409 19.61480152 2.04109556 22.30729255 2 25 C2.66 25 3.32 25 4 25 C4.33 24.34 4.66 23.68 5 23 C4.34 27.29 3.68 31.58 3 36 C2.67 35.01 2.34 34.02 2 33 C0.80793945 33.33209473 0.80793945 33.33209473 -0.40820312 33.67089844 C-27.0752383 41.09041807 -27.0752383 41.09041807 -36.5 43.5 C-37.6653125 43.7990625 -38.830625 44.098125 -40.03125 44.40625 C-42.78480497 44.95696099 -45.20287969 45.12524419 -48 45 C-45.28894596 43.19263064 -43.77126583 42.53468874 -40.7121582 41.76318359 C-39.85149246 41.54310638 -38.99082672 41.32302917 -38.1040802 41.09628296 C-37.17899155 40.86599396 -36.25390289 40.63570496 -35.30078125 40.3984375 C-34.35059616 40.1571109 -33.40041107 39.9157843 -32.4214325 39.66714478 C-29.3864674 38.89765728 -26.34954294 38.13624063 -23.3125 37.375 C-21.25442316 36.85469695 -19.19647868 36.33387001 -17.13867188 35.8125 C-12.0939681 34.53558376 -7.04763212 33.2652879 -2 32 C-1.32201913 27.60156896 -0.84487579 23.29443236 -0.68359375 18.84765625 C-0.62075195 17.18959961 -0.62075195 17.18959961 -0.55664062 15.49804688 C-0.51732422 14.36431641 -0.47800781 13.23058594 -0.4375 12.0625 C-0.37272461 10.32129883 -0.37272461 10.32129883 -0.30664062 8.54492188 C-0.20115158 5.69671768 -0.09903445 2.84843471 0 0 Z " fill="#9E9E9E" transform="translate(410,316)"/>
<path d="M0 0 C0 0.99 0 1.98 0 3 C8.58 5.64 17.16 8.28 26 11 C26 11.33 26 11.66 26 12 C20.79813078 11.4618756 17.09641312 10.69880437 12 9 C12 28.14 12 47.28 12 67 C9.55391029 64.55391029 9.73567529 63.86767186 9.68115234 60.50610352 C9.66128265 59.57496231 9.64141296 58.64382111 9.62094116 57.6844635 C9.60938995 56.67612961 9.59783875 55.66779572 9.5859375 54.62890625 C9.56657135 53.59563705 9.5472052 52.56236786 9.5272522 51.49778748 C9.46734697 48.18610977 9.4210552 44.87439648 9.375 41.5625 C9.33682513 39.33266692 9.29777369 37.10284866 9.2578125 34.87304688 C9 20.10788404 9 20.10788404 9 15 C9.33 15.33 9.66 15.66 10 16 C10.33 13.36 10.66 10.72 11 8 C8.03 7.67 5.06 7.34 2 7 C1.67 7.66 1.34 8.32 1 9 C-0.5625 7.8125 -0.5625 7.8125 -2 6 C-1.57894737 1.57894737 -1.57894737 1.57894737 0 0 Z " fill="#858585" transform="translate(180,325)"/>
<path d="M0 0 C0.70125 0.28875 1.4025 0.5775 2.125 0.875 C7.59823395 3.01670024 12.83833327 4.41019989 18.6328125 5.33984375 C22.24021133 6.34586752 24.39143566 8.39143566 27 11 C22.98430447 12.33856518 20.37397308 10.99903056 16.5625 9.625 C10.85199411 7.57759591 10.85199411 7.57759591 5 6 C4.8453125 7.6396875 4.8453125 7.6396875 4.6875 9.3125 C4.02692273 12.85559629 3.7972908 13.93243723 1 16 C1.33 14.9275 1.66 13.855 2 12.75 C3.1717751 9.00268399 3.1717751 9.00268399 3 5 C1.68 4.34 0.36 3.68 -1 3 C-0.67 2.01 -0.34 1.02 0 0 Z " fill="#141414" transform="translate(351,251)"/>
<path d="M0 0 C3.03098905 1.05854498 3.95610545 1.92855571 5.66796875 4.71484375 C6.16941406 5.77832031 6.67085938 6.84179688 7.1875 7.9375 C7.95126953 9.52884766 7.95126953 9.52884766 8.73046875 11.15234375 C12.28173737 19.11811244 11.96043824 27.85879483 9 36 C8.34 36 7.68 36 7 36 C7.02094727 35.44650879 7.04189453 34.89301758 7.06347656 34.32275391 C7.75537405 19.64218348 7.75537405 19.64218348 3 6 C2.41371858 4.79309432 1.82999404 3.58493972 1.25 2.375 C0.8375 1.59125 0.425 0.8075 0 0 Z " fill="#222222" transform="translate(408,233)"/>
<path d="M0 0 C1.98 0.99 3.96 1.98 6 3 C5.9375 5.1875 5.9375 5.1875 5 8 C2.43314355 10.38627358 -0.38918448 13 -4 13 C-4.28875 13.94875 -4.5775 14.8975 -4.875 15.875 C-6 19 -6 19 -8 21 C-7.57632374 18.0342662 -7.06956411 16.10852001 -5.4375 13.5625 C-3.74512168 11.05342176 -3.74512168 11.05342176 -4.0625 8 C-3.98203426 4.13764442 -2.59093637 2.7528699 0 0 Z " fill="#E4E4E4" transform="translate(121,345)"/>
<path d="M0 0 C5.76085097 0.59487048 11.09469636 1.69326173 16.65625 3.28515625 C17.83785706 3.6159745 17.83785706 3.6159745 19.04333496 3.95347595 C21.5304373 4.65111588 24.01521374 5.35666058 26.5 6.0625 C28.1977685 6.54024039 29.89568394 7.01745894 31.59375 7.49414062 C35.7308889 8.65673771 39.86596276 9.82642382 44 11 C44.33 10.34 44.66 9.68 45 9 C45 9.66 45 10.32 45 11 C45.68707031 10.77183594 46.37414062 10.54367187 47.08203125 10.30859375 C47.98308594 10.02113281 48.88414062 9.73367188 49.8125 9.4375 C50.70582031 9.14746094 51.59914063 8.85742188 52.51953125 8.55859375 C55 8 55 8 58 9 C56.17479173 9.70878921 54.3392508 10.39099135 52.5 11.0625 C50.96859375 11.63677734 50.96859375 11.63677734 49.40625 12.22265625 C42.71025268 13.75075656 36.12473258 11.65749997 29.66796875 9.78515625 C28.90954178 9.5693541 28.15111481 9.35355194 27.3697052 9.13121033 C25.78152837 8.67769262 24.19418684 8.2212402 22.60766602 7.76196289 C20.17894091 7.0600263 17.74698616 6.37025041 15.31445312 5.68164062 C13.76541896 5.23769747 12.21658342 4.79306055 10.66796875 4.34765625 C9.94296677 4.14237808 9.21796478 3.93709991 8.47099304 3.7256012 C5.24371549 2.78408409 2.82219853 1.88146569 0 0 Z " fill="#8D8D8D" transform="translate(206,337)"/>
<path d="M0 0 C1.32 0.33 2.64 0.66 4 1 C3.01 1.33 2.02 1.66 1 2 C0.67 1.34 0.34 0.68 0 0 Z M0 1 C-1.10486898 4.31460693 -1.87623086 4.96976106 -4.5 7.125 C-11.43095751 13.03376593 -17.95204468 18.7280913 -22 27 C-22.92549792 24.51899653 -23.18653089 23.42415503 -22.1015625 20.95703125 C-8.36065574 1 -8.36065574 1 0 1 Z " fill="#0C0C0C" transform="translate(321,186)"/>
<path d="M0 0 C3.52844977 3.52844977 3.64728672 5.15019246 4 10 C3.67 10.66 3.34 11.32 3 12 C11.30812204 13.74640116 19.52902072 14.53007706 28 15 C28 15.33 28 15.66 28 16 C16.69256254 17.33589978 5.36626101 17.09861278 -6 17 C-6 16.67 -6 16.34 -6 16 C-1.38 15.67 3.24 15.34 8 15 C6.39125 14.401875 4.7825 13.80375 3.125 13.1875 C-1.75 11.375 -1.75 11.375 -4 8 C-2.02 8.66 -0.04 9.32 2 10 C1.34 6.7 0.68 3.4 0 0 Z " fill="#8D8D8D" transform="translate(374,385)"/>
<path d="M0 0 C-0.33 0.66 -0.66 1.32 -1 2 C-2.0209375 1.505 -2.0209375 1.505 -3.0625 1 C-8.95268317 -1.00516874 -14.49870322 0.16516118 -20.4375 1.5 C-25.72250583 2.64159259 -30.58996201 3.33122682 -36 3 C-36 2.67 -36 2.34 -36 2 C-34.35 2 -32.7 2 -31 2 C-31 1.34 -31 0.68 -31 0 C-8.11614173 -5.12598425 -8.11614173 -5.12598425 0 0 Z " fill="#121212" transform="translate(341,394)"/>
<path d="M0 0 C0 0.99 0 1.98 0 3 C-11.00183712 3.89883297 -21.90423661 4.12512857 -32.9375 4.0625 C-34.50716 4.05746644 -36.0768216 4.05290687 -37.64648438 4.04882812 C-41.43103017 4.03798912 -45.21549656 4.02083095 -49 4 C-49 3.67 -49 3.34 -49 3 C-48.39341553 2.98018066 -47.78683105 2.96036133 -47.16186523 2.93994141 C-32.70963215 2.44930009 -18.35126163 1.56015325 -3.95751953 0.16772461 C-2 0 -2 0 0 0 Z " fill="#121212" transform="translate(404,400)"/>
<path d="M0 0 C0.99 0.33 1.98 0.66 3 1 C2.34 2.98 1.68 4.96 1 7 C0.34 7 -0.32 7 -1 7 C-0.67 8.65 -0.34 10.3 0 12 C2.44480079 11.81171228 2.44480079 11.81171228 5 11 C5.66 9.68 6.32 8.36 7 7 C7 9.97 7 12.94 7 16 C-1.33616037 13.79336931 -1.33616037 13.79336931 -4.5625 9.9375 C-6 7 -6 7 -6 5 C-5.01 5 -4.02 5 -3 5 C-3 4.01 -3 3.02 -3 2 C-2.01 2 -1.02 2 0 2 C0 1.34 0 0.68 0 0 Z " fill="#999999" transform="translate(93,338)"/>
<path d="M0 0 C0.5775 0.763125 1.155 1.52625 1.75 2.3125 C4.5972954 5.71343617 6.79152368 7.59717456 11 9 C15.53604515 9.14632404 19.57453821 9.10636545 24 8 C24.33 8.66 24.66 9.32 25 10 C20.19795828 12.56108892 15.30065957 12.66258245 10 12 C4.5720486 10.19068287 1.73363058 6.81118982 -1 2 C-0.67 1.34 -0.34 0.68 0 0 Z " fill="#151515" transform="translate(463,356)"/>
<path d="M0 0 C4.95 0.99 4.95 0.99 10 2 C10 4.97 10 7.94 10 11 C5.57882285 9.64908476 3.556657 7.8349855 1 4 C0.67 2.68 0.34 1.36 0 0 Z " fill="#E0E0E0" transform="translate(181,331)"/>
<path d="M0 0 C2.5625 2.1875 2.5625 2.1875 5 5 C4.8125 7.8125 4.8125 7.8125 4 10 C2.35 10.33 0.7 10.66 -1 11 C-2.0625 9.125 -2.0625 9.125 -3 7 C-2.67 6.34 -2.34 5.68 -2 5 C-1.34 5 -0.68 5 0 5 C0 3.35 0 1.7 0 0 Z " fill="#FAFAFA" transform="translate(94,340)"/>
<path d="M0 0 C1.31611677 0.95336021 2.62778961 1.91285774 3.9375 2.875 C4.66839844 3.40867187 5.39929688 3.94234375 6.15234375 4.4921875 C8 6 8 6 9 8 C7.68 7.67 6.36 7.34 5 7 C5.185625 8.27875 5.37125 9.5575 5.5625 10.875 C6.125 14.75 6.125 14.75 5 17 C3.35 17 1.7 17 0 17 C-0.33 17.99 -0.66 18.98 -1 20 C-1 18.68 -1 17.36 -1 16 C0.65 16 2.3 16 4 16 C2.98408579 10.53135543 1.92908943 5.23609987 0 0 Z " fill="#828282" transform="translate(344,379)"/>
<path d="M0 0 C0.33 0 0.66 0 1 0 C1.43630637 8.28982104 -0.22032737 15.95969329 -2 24 C-2.66 23.34 -3.32 22.68 -4 22 C-3.63020557 14.48084653 -1.79180769 7.29119228 0 0 Z " fill="#161616" transform="translate(533,380)"/>
<path d="M0 0 C4.75771848 0.41979869 7.82919346 2.56857922 11 6 C12.53182773 8.27653168 13.74947851 10.54705399 15 13 C14.34 13.66 13.68 14.32 13 15 C12.64808594 14.40832031 12.29617188 13.81664062 11.93359375 13.20703125 C8.5200408 7.74356399 5.41440255 4.46521763 0 1 C0 0.67 0 0.34 0 0 Z " fill="#222222" transform="translate(380,189)"/>
<path d="M0 0 C0.33 0 0.66 0 1 0 C1.21824777 6.0018137 0.5056904 11.19233704 -1 17 C-1.66 17 -2.32 17 -3 17 C-3.33 17.99 -3.66 18.98 -4 20 C-3.42978625 13.04339229 -1.98697306 6.68572695 0 0 Z " fill="#0F0F0F" transform="translate(550,304)"/>
<path d="M0 0 C0.763125 0.309375 1.52625 0.61875 2.3125 0.9375 C4.18789677 1.67893593 6.08684652 2.36228217 8 3 C8 3.66 8 4.32 8 5 C7.01 5 6.02 5 5 5 C5.061875 5.886875 5.12375 6.77375 5.1875 7.6875 C4.98048018 11.34485017 4.083926 13.04777151 2 16 C1.67 15.34 1.34 14.68 1 14 C1.6590841 12.33032028 2.32650839 10.66392045 3 9 C3 7.68 3 6.36 3 5 C1.68 4.34 0.36 3.68 -1 3 C-0.67 2.01 -0.34 1.02 0 0 Z " fill="#404040" transform="translate(351,251)"/>
<path d="M0 0 C2.89573124 0.99852802 3.97265909 1.96094156 5.75 4.5 C7.38991031 9.09174888 7.25734187 13.17722273 7 18 C6.34 18 5.68 18 5 18 C4.67 13.71 4.34 9.42 4 5 C3.34 5 2.68 5 2 5 C1.34 3.35 0.68 1.7 0 0 Z " fill="#0E0E0E" transform="translate(488,338)"/>
<path d="M0 0 C2.43364956 3.72535587 2.09442029 6.78349158 1.75 11.125 C1.66234375 12.36507813 1.5746875 13.60515625 1.484375 14.8828125 C1 18 1 18 -1 20 C-1.18451025 6.3667426 -1.18451025 6.3667426 0 0 Z " fill="#1E1E1E" transform="translate(420,305)"/>
<path d="M0 0 C0.33 0.99 0.66 1.98 1 3 C1.66 3 2.32 3 3 3 C2.34 6.96 1.68 10.92 1 15 C0.01 15 -0.98 15 -2 15 C-1.34 10.05 -0.68 5.1 0 0 Z " fill="#262626" transform="translate(410,361)"/>
<path d="M0 0 C0.66 0.66 1.32 1.32 2 2 C-4.11980533 3.40454548 -9.71739294 4.23268915 -16 4 C-16 3.67 -16 3.34 -16 3 C-14.35 3 -12.7 3 -11 3 C-11 2.34 -11 1.68 -11 1 C-7.26779887 0.12183503 -3.83453269 -0.25563551 0 0 Z " fill="#121212" transform="translate(321,393)"/>
<path d="M0 0 C3.875 1.875 3.875 1.875 5 3 C5.04092937 5.33297433 5.04241723 7.66705225 5 10 C2.5 8.375 2.5 8.375 0 6 C-0.3125 2.75 -0.3125 2.75 0 0 Z " fill="#1B1B1B" transform="translate(92,314)"/>
<path d="M0 0 C0 1.98 0 3.96 0 6 C-0.99 6.33 -1.98 6.66 -3 7 C-3.33 7.99 -3.66 8.98 -4 10 C-4.33 10 -4.66 10 -5 10 C-5.3669579 3.51707705 -5.3669579 3.51707705 -3.625 1.0625 C-2 0 -2 0 0 0 Z " fill="#1E1E1E" transform="translate(129,301)"/>
<path d="M0 0 C0 0.33 0 0.66 0 1 C-8.34332544 2.19190363 -16.59323022 2.09283549 -25 2 C-25 1.67 -25 1.34 -25 1 C-16.41845002 -0.51586503 -8.6465823 -1.30581039 0 0 Z " fill="#131313" transform="translate(272,401)"/>
<path d="M0 0 C0.66 0 1.32 0 2 0 C1.88544319 1.91731918 1.75793742 3.8338675 1.625 5.75 C1.55539062 6.81734375 1.48578125 7.8846875 1.4140625 8.984375 C1.0271777 11.80206432 0.44313834 13.5830366 -1 16 C-2.49697302 10.31150252 -1.3348044 5.58190932 0 0 Z " fill="#0F0F0F" transform="translate(408,376)"/>
<path d="M0 0 C1.53508028 2.43338652 2.03088304 3.67124507 1.7578125 6.578125 C1.54898438 7.45984375 1.34015625 8.3415625 1.125 9.25 C0.92132812 10.14203125 0.71765625 11.0340625 0.5078125 11.953125 C0.34023438 12.62859375 0.17265625 13.3040625 0 14 C-0.66 14 -1.32 14 -2 14 C-2.33 14.99 -2.66 15.98 -3 17 C-2.48517081 11.147205 -1.54642808 5.6702363 0 0 Z " fill="#141414" transform="translate(540,348)"/>
<path d="M0 0 C0 0.99 0 1.98 0 3 C2.97 3.99 5.94 4.98 9 6 C9 6.66 9 7.32 9 8 C6.69 7.67 4.38 7.34 2 7 C1.67 7.66 1.34 8.32 1 9 C-0.5625 7.8125 -0.5625 7.8125 -2 6 C-1.57894737 1.57894737 -1.57894737 1.57894737 0 0 Z " fill="#878787" transform="translate(180,325)"/>
<path d="M0 0 C0.33 0 0.66 0 1 0 C1.34233545 5.70559087 1.41313375 10.12409464 -2 15 C-4.1875 15.875 -4.1875 15.875 -6 16 C-4.84355097 13.68710194 -3.67275225 11.39786415 -2.4375 9.125 C-1.00704743 6.01532051 -0.40265232 3.38227947 0 0 Z " fill="#101010" transform="translate(379,240)"/>
<path d="M0 0 C2.95409701 1.37154504 5.44008376 2.98863724 8 5 C7.34 6.32 6.68 7.64 6 9 C5.01 9 4.02 9 3 9 C3.33 8.01 3.66 7.02 4 6 C3.34 5.38125 2.68 4.7625 2 4.125 C0 2 0 2 0 0 Z " fill="#212121" transform="translate(335,231)"/>
<path d="M0 0 C0.66 0 1.32 0 2 0 C1.67 1.32 1.34 2.64 1 4 C5.29 4 9.58 4 14 4 C14 4.33 14 4.66 14 5 C6.08 5.495 6.08 5.495 -2 6 C-1 1 -1 1 0 0 Z " fill="#1C1C1C" transform="translate(222,405)"/>
<path d="M0 0 C1.53508028 2.43338652 2.03088304 3.67124507 1.7578125 6.578125 C1.44457031 7.90070313 1.44457031 7.90070313 1.125 9.25 C0.92132812 10.14203125 0.71765625 11.0340625 0.5078125 11.953125 C0.34023438 12.62859375 0.17265625 13.3040625 0 14 C-0.66 13.67 -1.32 13.34 -2 13 C-1.85851011 11.3954444 -1.71164314 9.79136233 -1.5625 8.1875 C-1.48128906 7.29417969 -1.40007813 6.40085937 -1.31640625 5.48046875 C-1 3 -1 3 0 0 Z " fill="#181818" transform="translate(536,366)"/>
<path d="M0 0 C1.98 0.99 3.96 1.98 6 3 C5.75 5.375 5.75 5.375 5 8 C2.9375 9.3125 2.9375 9.3125 1 10 C1.99 8.35 2.98 6.7 4 5 C3.01 5 2.02 5 1 5 C0.34 3.68 -0.32 2.36 -1 1 C-0.67 0.67 -0.34 0.34 0 0 Z " fill="#808080" transform="translate(121,345)"/>
<path d="M0 0 C1.11157015 2.07493094 1.96371011 3.79435726 2.375 6.125 C2.84540342 8.21059622 2.84540342 8.21059622 5.0625 9.25 C5.701875 9.4975 6.34125 9.745 7 10 C6 11 6 11 3.4375 11.0625 C2.633125 11.041875 1.82875 11.02125 1 11 C-0.28317892 7.15046324 -0.06643637 4.05261865 0 0 Z " fill="#0E0E0E" transform="translate(295,233)"/>
<path d="M0 0 C1.32 0.33 2.64 0.66 4 1 C3.01 1.33 2.02 1.66 1 2 C0.67 1.34 0.34 0.68 0 0 Z M0 1 C-1.4638611 5.39158329 -3.97831338 5.87947433 -8 8 C-8 7.01 -8 6.02 -8 5 C-2.74285714 1 -2.74285714 1 0 1 Z " fill="#1A1A1A" transform="translate(321,186)"/>
<path d="M0 0 C1.32 0.99 2.64 1.98 4 3 C2.824375 3.309375 2.824375 3.309375 1.625 3.625 C-1.2945785 4.79029933 -1.2945785 4.79029933 -2.1875 8 C-2.455625 8.99 -2.72375 9.98 -3 11 C-3.66 11.66 -4.32 12.32 -5 13 C-4.39254603 8.14036821 -2.27241033 4.2594482 0 0 Z " fill="#A7A7A7" transform="translate(118,353)"/>
<path d="M0 0 C-0.33 0.66 -0.66 1.32 -1 2 C-3.50390625 2.4140625 -3.50390625 2.4140625 -6.5625 2.625 C-7.57441406 2.69976562 -8.58632813 2.77453125 -9.62890625 2.8515625 C-10.41136719 2.90054688 -11.19382812 2.94953125 -12 3 C-10 0 -10 0 -7.125 -0.75 C-4.34990614 -0.97200751 -2.59410701 -0.89796012 0 0 Z " fill="#1B1B1B" transform="translate(346,180)"/>
<path d="M0 0 C0.99 0.33 1.98 0.66 3 1 C2.34 2.98 1.68 4.96 1 7 C-0.32 6.34 -1.64 5.68 -3 5 C-3 4.01 -3 3.02 -3 2 C-2.01 2 -1.02 2 0 2 C0 1.34 0 0.68 0 0 Z " fill="#6B6B6B" transform="translate(93,338)"/>
<path d="M0 0 C3.7952131 1.49097658 5.61042731 3.75700849 8 7 C7.34 7.66 6.68 8.32 6 9 C4.76302083 7.50260417 3.52604167 6.00520833 2.2890625 4.5078125 C1.24749008 3.28948839 0.13339903 2.13339903 -1 1 C-0.67 0.67 -0.34 0.34 0 0 Z " fill="#1A1A1A" transform="translate(488,333)"/>
<path d="M0 0 C4.37859255 0.50522222 6.81651224 3.17827222 10 6 C9.34 6.66 8.68 7.32 8 8 C6.66372225 6.85760183 5.33104612 5.71098945 4 4.5625 C3.2575 3.92441406 2.515 3.28632813 1.75 2.62890625 C1.1725 2.09136719 0.595 1.55382812 0 1 C0 0.67 0 0.34 0 0 Z " fill="#161616" transform="translate(384,267)"/>
<path d="M0 0 C0 4.05480631 -1.54870092 5.84832975 -4 9 C-4.99 9 -5.98 9 -7 9 C-6.21448343 7.68381002 -5.4213763 6.37214772 -4.625 5.0625 C-4.18414062 4.33160156 -3.74328125 3.60070312 -3.2890625 2.84765625 C-2 1 -2 1 0 0 Z " fill="#121212" transform="translate(497,357)"/>
<path d="M0 0 C0.8125 1.6875 0.8125 1.6875 1 4 C-1.3125 6.75 -1.3125 6.75 -4 9 C-4.66 9 -5.32 9 -6 9 C-4.47291037 5.56404834 -2.40072955 2.88087546 0 0 Z " fill="#A4A4A4" transform="translate(198,301)"/>
<path d="M0 0 C2.56616632 3.84924948 2.55097676 6.4349304 3 11 C2.01 11.495 2.01 11.495 1 12 C0.63597631 10.56496445 0.28413409 9.12683494 -0.0625 7.6875 C-0.25972656 6.88699219 -0.45695312 6.08648437 -0.66015625 5.26171875 C-1 3 -1 3 0 0 Z " fill="#111111" transform="translate(408,298)"/>
<path d="M0 0 C0.99 0.33 1.98 0.66 3 1 C0.69 3.31 -1.62 5.62 -4 8 C-4.66 7.34 -5.32 6.68 -6 6 C-4.02 4.02 -2.04 2.04 0 0 Z " fill="#121212" transform="translate(309,195)"/>
<path d="M0 0 C0.33 0 0.66 0 1 0 C1.05447047 1.41623216 1.09300508 2.83308191 1.125 4.25 C1.14820313 5.03890625 1.17140625 5.8278125 1.1953125 6.640625 C0.9828378 9.20731941 0.28654105 10.7916067 -1 13 C-2.51403812 8.15507803 -1.36602172 4.7408989 0 0 Z " fill="#0E0E0E" transform="translate(533,380)"/>
<path d="M0 0 C4.1424367 1.38081223 5.32203099 3.59825558 8 7 C7.67 7.66 7.34 8.32 7 9 C6.34 9 5.68 9 5 9 C3.7109375 7.5390625 3.7109375 7.5390625 2.375 5.625 C1.92898438 4.99851562 1.48296875 4.37203125 1.0234375 3.7265625 C0 2 0 2 0 0 Z " fill="#0E0E0E" transform="translate(459,359)"/>
<path d="M0 0 C0.66 0 1.32 0 2 0 C1.34 4.29 0.68 8.58 0 13 C-0.33 13 -0.66 13 -1 13 C-1.2236337 11.58566794 -1.42826476 10.16832382 -1.625 8.75 C-1.74101562 7.96109375 -1.85703125 7.1721875 -1.9765625 6.359375 C-2.00319395 3.67847541 -1.36592084 2.27305911 0 0 Z " fill="#161616" transform="translate(463,342)"/>
<path d="M0 0 C1.72217143 2.63390925 2.00455315 3.92411417 1.8125 7.125 C1 10 1 10 -2 12 C-1.85831863 10.56208484 -1.71148957 9.1246763 -1.5625 7.6875 C-1.48128906 6.88699219 -1.40007813 6.08648437 -1.31640625 5.26171875 C-1 3 -1 3 0 0 Z " fill="#191919" transform="translate(545,326)"/>
<path d="M0 0 C0.66 0.99 1.32 1.98 2 3 C0.625 6.6875 0.625 6.6875 -1 10 C-1.66 9.67 -2.32 9.34 -3 9 C-2.30058404 5.85262818 -1.23921302 2.97411124 0 0 Z " fill="#1A1A1A" transform="translate(414,304)"/>
<path d="M0 0 C2.40072955 2.88087546 4.47291037 5.56404834 6 9 C2.19333016 7.55609075 0.73397418 5.65047197 -1 2 C-0.67 1.34 -0.34 0.68 0 0 Z " fill="#111111" transform="translate(463,356)"/>
<path d="M0 0 C0.33 0 0.66 0 1 0 C1.19532961 1.7699868 1.38098882 3.54104279 1.5625 5.3125 C1.66691406 6.29863281 1.77132813 7.28476562 1.87890625 8.30078125 C2 11 2 11 1 14 C0.34 14 -0.32 14 -1 14 C-0.67 9.38 -0.34 4.76 0 0 Z " fill="#121212" transform="translate(416,255)"/>
<path d="M0 0 C2.475 0.495 2.475 0.495 5 1 C4.67 2.32 4.34 3.64 4 5 C3.01 4.67 2.02 4.34 1 4 C0.3125 1.9375 0.3125 1.9375 0 0 Z " fill="#BFBFBF" transform="translate(87,343)"/>
<path d="M0 0 C4.7517398 0.43197635 6.92000054 1.32769295 10 5 C5.75354935 5 3.61475228 3.18249194 0 1 C0 0.67 0 0.34 0 0 Z " fill="#1A1A1A" transform="translate(397,226)"/>
<path d="M0 0 C2.64 0.99 5.28 1.98 8 3 C7.67 3.66 7.34 4.32 7 5 C4.03 4.01 1.06 3.02 -2 2 C-1.34 1.34 -0.68 0.68 0 0 Z " fill="#141414" transform="translate(371,183)"/>
<path d="M0 0 C1.7824918 3.33311475 2.48792856 6.24480943 3 10 C2.01 10.495 2.01 10.495 1 11 C-0.20272819 8.59454362 -0.10071472 7.05003047 -0.0625 4.375 C-0.05347656 3.55773437 -0.04445313 2.74046875 -0.03515625 1.8984375 C-0.02355469 1.27195312 -0.01195312 0.64546875 0 0 Z " fill="#131313" transform="translate(457,347)"/>
<path d="M0 0 C0.99 0.33 1.98 0.66 3 1 C0.23776722 3.76223278 -2.20706617 3.57856291 -6 4 C-6 3.01 -6 2.02 -6 1 C-4.7934375 1.0309375 -4.7934375 1.0309375 -3.5625 1.0625 C-1.06645115 1.29633621 -1.06645115 1.29633621 0 0 Z " fill="#1D1D1D" transform="translate(344,215)"/>
<path d="M0 0 C4.455 0.99 4.455 0.99 9 2 C5 4 5 4 1.75 3.125 C0.8425 2.75375 -0.065 2.3825 -1 2 C-0.67 1.34 -0.34 0.68 0 0 Z " fill="#1C1C1C" transform="translate(367,208)"/>
<path d="M0 0 C2.29013653 3.4352048 2.17842973 4.985331 2 9 C1.01 9 0.02 9 -1 9 C-0.67 6.03 -0.34 3.06 0 0 Z " fill="#1C1C1C" transform="translate(405,390)"/>
<path d="M0 0 C0 0.99 0 1.98 0 3 C-2.31 3 -4.62 3 -7 3 C-7 2.34 -7 1.68 -7 1 C-4.50935112 0.31292445 -2.62113708 0 0 0 Z " fill="#252525" transform="translate(328,391)"/>
<path d="M0 0 C4.875 4.625 4.875 4.625 6 8 C5.01 8.495 5.01 8.495 4 9 C0 3.375 0 3.375 0 0 Z " fill="#161616" transform="translate(395,275)"/>
<path d="M0 0 C2.31 1.98 4.62 3.96 7 6 C6.01 6.33 5.02 6.66 4 7 C2.35 5.02 0.7 3.04 -1 1 C-0.67 0.67 -0.34 0.34 0 0 Z " fill="#141414" transform="translate(357,199)"/>
</svg>
