<svg id="svg" xmlns="http://www.w3.org/2000/svg" xmlns:xlink="http://www.w3.org/1999/xlink" width="400" height="367.283950617284" viewBox="0, 0, 400,367.283950617284"><g id="svgg"><path id="path0" d="M396.914 1.852 C 396.914 2.675,397.325 3.086,398.148 3.086 C 398.971 3.086,399.383 2.675,399.383 1.852 C 399.383 1.029,398.971 0.617,398.148 0.617 C 397.325 0.617,396.914 1.029,396.914 1.852 M157.099 35.406 C 146.783 40.231,143.473 52.525,150.474 60.010 L 152.043 61.686 150.250 62.363 C 124.389 72.116,96.170 96.276,84.117 118.985 C 74.553 137.002,80.361 144.424,100.915 140.450 C 110.953 138.509,115.692 140.004,123.856 147.683 L 129.596 153.083 126.372 154.709 C 93.313 171.386,62.716 209.376,63.677 232.550 L 63.889 237.656 61.728 238.020 C 38.453 241.937,23.575 253.736,20.582 270.653 C 16.588 293.220,37.787 316.223,73.020 327.554 C 76.981 328.828,78.568 329.701,80.294 331.554 C 87.325 339.102,107.960 342.222,149.074 341.953 C 160.957 341.875,180.401 342.015,192.284 342.263 C 213.542 342.708,219.398 342.452,235.185 340.387 C 244.667 339.146,254.596 335.250,257.218 331.741 L 258.638 329.840 252.467 328.116 C 244.931 326.012,244.934 326.111,252.321 323.457 C 306.816 303.873,333.068 253.221,298.319 234.708 L 294.528 232.688 296.578 228.227 C 297.706 225.773,301.299 218.104,304.562 211.185 C 307.824 204.266,310.494 198.502,310.494 198.376 C 310.494 198.251,299.023 198.148,285.004 198.148 L 259.513 198.148 255.736 193.056 C 253.659 190.255,249.452 185.423,246.388 182.319 L 240.817 176.675 235.985 165.035 C 233.197 158.318,230.766 153.300,230.237 153.171 C 229.733 153.048,226.866 152.526,223.865 152.011 C 219.869 151.325,217.991 150.686,216.845 149.625 C 213.768 146.773,208.931 147.107,207.160 150.294 C 205.861 152.631,204.521 153.390,203.188 152.545 C 202.556 152.144,203.104 151.008,205.534 147.677 C 216.865 132.148,217.959 109.353,208.350 89.066 C 200.431 72.350,187.643 59.383,177.949 58.240 L 175.000 57.892 175.198 53.130 C 175.774 39.259,167.075 30.740,157.099 35.406 M178.273 77.889 C 191.695 81.269,194.035 106.576,181.683 114.757 C 175.942 118.560,171.221 117.020,163.580 108.852 L 159.790 104.801 161.201 103.300 L 162.611 101.799 159.130 103.392 C 153.539 105.952,149.383 103.571,149.383 97.806 C 149.383 94.191,151.183 92.859,155.072 93.594 C 156.526 93.869,157.855 94.104,158.025 94.115 C 159.276 94.199,167.887 83.801,168.536 81.422 C 168.943 79.927,169.375 78.356,169.496 77.932 C 169.776 76.943,174.426 76.920,178.273 77.889 M192.583 95.025 C 192.578 95.894,192.304 97.022,191.975 97.531 C 191.505 98.258,191.375 98.109,191.367 96.836 C 191.362 95.945,191.199 94.279,191.005 93.133 C 190.671 91.161,190.704 91.113,191.622 92.248 C 192.156 92.907,192.588 94.157,192.583 95.025 M151.029 96.708 C 150.062 97.675,150.751 98.217,152.469 97.840 C 153.935 97.517,154.248 97.619,153.976 98.329 C 153.740 98.944,154.176 99.332,155.365 99.565 C 157.731 100.029,158.284 99.276,156.769 97.651 C 155.549 96.341,151.982 95.755,151.029 96.708 M194.722 107.493 C 196.764 109.099,195.985 109.853,192.267 109.867 C 190.900 109.872,189.184 110.294,188.455 110.805 C 187.131 111.732,187.131 111.731,188.101 109.725 C 190.053 105.693,191.719 105.131,194.722 107.493 M170.351 116.607 C 174.019 118.562,174.074 118.630,174.074 121.246 C 174.074 122.707,174.256 125.227,174.478 126.848 L 174.882 129.794 170.928 129.415 C 168.754 129.206,164.658 128.854,161.825 128.631 L 156.675 128.226 157.133 125.378 C 157.930 120.417,157.866 120.079,156.084 119.873 C 152.863 119.500,153.313 116.667,156.594 116.667 C 159.278 116.667,159.311 116.641,159.175 114.660 C 159.099 113.557,159.087 111.325,159.148 109.700 L 159.259 106.745 162.944 110.684 C 165.107 112.996,168.165 115.441,170.351 116.607 M155.309 111.358 C 156.463 112.512,157.407 113.762,157.407 114.136 C 157.407 115.150,153.354 114.956,152.478 113.899 C 151.948 113.261,150.722 113.027,148.421 113.128 C 143.915 113.324,142.915 112.237,146.070 110.573 C 149.823 108.593,152.797 108.846,155.309 111.358 M198.752 111.085 C 199.883 113.200,196.184 114.506,194.723 112.508 C 194.045 111.582,194.162 111.337,195.580 110.706 C 197.852 109.697,198.019 109.717,198.752 111.085 M144.246 113.895 C 146.408 114.799,146.443 114.864,145.386 116.033 C 144.171 117.374,140.741 116.311,140.741 114.593 C 140.741 112.811,141.358 112.688,144.246 113.895 M186.922 114.043 C 186.807 114.646,186.038 115.219,185.181 115.341 C 183.658 115.556,183.655 115.547,184.820 114.260 C 186.249 112.681,187.200 112.583,186.922 114.043 M160.494 129.915 C 166.435 130.398,175.787 130.986,181.275 131.221 L 191.254 131.649 191.923 134.308 C 193.433 140.302,192.309 147.306,189.938 146.686 C 186.886 145.888,191.257 148.758,196.914 151.267 C 204.064 154.437,204.321 154.633,204.321 156.906 C 204.321 157.906,204.655 159.330,205.063 160.071 C 205.471 160.813,205.861 163.225,205.930 165.432 C 206.249 175.639,206.556 177.363,208.856 181.886 C 211.476 187.037,213.798 189.226,217.263 189.811 L 219.753 190.232 219.753 194.190 L 219.753 198.148 214.886 198.148 L 210.018 198.148 208.589 190.732 C 207.135 183.182,206.578 181.487,205.807 182.259 C 205.569 182.497,206.067 186.159,206.912 190.396 L 208.451 198.101 203.498 198.279 L 198.546 198.457 186.773 223.471 C 180.298 237.229,173.539 251.602,171.754 255.411 L 168.507 262.335 158.791 256.375 C 141.521 245.782,142.337 246.146,128.549 242.859 C 118.902 240.558,116.054 239.659,116.070 238.920 C 116.082 238.394,118.005 224.491,120.345 208.025 C 122.845 190.424,124.371 177.853,124.048 177.520 C 123.184 176.632,123.092 177.123,118.826 205.247 C 116.612 219.846,114.631 232.607,114.424 233.606 L 114.047 235.422 113.127 233.606 C 108.150 223.784,89.263 216.980,79.147 221.365 C 76.203 222.641,77.491 223.136,81.511 222.273 C 94.329 219.525,107.578 225.501,112.804 236.389 L 114.700 240.340 112.259 247.176 C 110.916 250.936,108.811 256.732,107.582 260.057 L 105.347 266.102 103.445 265.696 C 68.162 258.172,55.832 235.076,72.262 207.288 C 85.769 184.444,121.558 154.194,138.936 150.934 C 142.461 150.273,142.868 149.826,142.059 147.505 C 140.998 144.461,141.180 134.693,142.363 131.222 L 143.368 128.273 146.530 128.654 C 148.269 128.864,154.552 129.431,160.494 129.915 M215.123 150.000 L 216.975 151.226 212.464 151.231 C 207.945 151.235,207.110 150.582,210.094 149.379 C 212.143 148.552,213.119 148.672,215.123 150.000 M145.062 149.983 C 145.062 152.186,169.636 155.411,175.154 153.932 C 178.393 153.064,176.069 152.469,169.440 152.469 C 162.383 152.469,151.632 151.207,148.480 150.009 C 146.403 149.219,145.062 149.209,145.062 149.983 M223.529 153.351 C 226.115 153.812,228.764 154.475,229.417 154.824 C 230.599 155.457,241.890 182.886,245.281 193.364 L 246.829 198.148 233.908 198.148 L 220.988 198.148 220.988 193.591 C 220.988 188.701,220.683 188.304,216.904 188.280 C 214.546 188.265,209.525 182.861,210.741 181.646 C 210.926 181.461,214.033 181.641,217.644 182.047 C 223.636 182.722,225.450 182.651,224.578 181.779 C 224.402 181.604,220.953 181.020,216.913 180.482 C 208.644 179.382,208.025 178.992,208.025 174.882 L 208.025 172.222 212.141 172.222 C 214.405 172.222,218.031 172.531,220.199 172.909 C 223.827 173.541,225.438 173.380,224.535 172.477 C 223.841 171.784,219.411 171.016,213.706 170.602 C 207.274 170.134,206.790 169.780,206.790 165.548 C 206.790 161.475,211.515 160.864,223.611 163.372 C 226.205 163.910,225.673 162.507,222.994 161.745 C 221.721 161.382,217.541 160.910,213.705 160.694 C 205.877 160.254,205.323 159.908,205.674 155.687 C 205.947 152.408,213.039 151.480,223.529 153.351 M278.670 153.757 C 278.034 154.787,279.465 155.967,280.317 155.116 C 281.029 154.403,280.583 153.086,279.630 153.086 C 279.330 153.086,278.899 153.388,278.670 153.757 M247.866 185.658 C 251.635 189.813,255.608 194.889,257.037 197.377 C 257.375 197.965,256.377 198.148,252.841 198.148 L 248.201 198.148 246.285 191.937 C 245.230 188.521,243.846 184.508,243.208 183.020 C 241.625 179.328,242.649 179.908,247.866 185.658 M307.850 200.463 C 307.714 200.718,299.177 218.912,288.879 240.895 L 270.156 280.864 215.876 280.864 C 172.699 280.864,161.659 280.706,161.905 280.093 C 162.074 279.668,169.919 262.932,179.337 242.901 C 188.754 222.870,197.114 205.023,197.914 203.241 L 199.367 200.000 253.732 200.000 C 283.633 200.000,307.986 200.208,307.850 200.463 M231.091 235.045 C 226.083 239.101,228.540 246.605,234.877 246.605 C 237.348 246.605,238.010 246.320,239.557 244.589 C 243.404 240.283,240.624 233.978,234.877 233.978 C 233.457 233.978,231.848 234.431,231.091 235.045 M128.704 244.340 L 141.049 247.272 150.434 253.111 C 155.595 256.323,161.597 260.062,163.771 261.420 L 167.724 263.889 166.243 267.099 L 164.761 270.309 155.374 264.384 C 150.212 261.126,145.325 257.945,144.516 257.316 C 142.649 255.866,140.827 255.716,141.981 257.106 C 142.765 258.050,150.658 263.329,159.397 268.753 L 164.164 271.712 162.627 274.745 C 160.712 278.524,162.137 278.944,149.585 270.902 C 140.147 264.855,137.336 263.424,138.460 265.237 C 138.632 265.514,143.370 268.657,148.989 272.222 C 160.242 279.362,160.031 279.160,157.398 280.251 C 153.607 281.821,146.700 280.771,139.750 277.567 C 135.353 275.540,132.711 274.689,130.799 274.683 C 124.350 274.664,111.867 271.115,108.379 268.309 L 106.572 266.856 111.157 254.114 C 113.678 247.106,115.880 241.380,116.049 241.390 C 116.219 241.400,121.914 242.727,128.704 244.340 M109.711 277.305 C 134.093 286.734,141.723 290.123,138.566 290.123 C 137.469 290.123,79.012 267.018,79.012 266.585 C 79.012 265.510,81.061 266.226,109.711 277.305 M208.302 282.621 C 207.465 283.367,184.425 292.616,183.436 292.603 C 180.411 292.565,189.509 288.180,202.778 283.283 C 205.982 282.100,209.339 281.698,208.302 282.621 M157.553 289.029 C 159.500 289.928,162.083 291.419,163.293 292.342 L 165.494 294.021 163.148 296.424 C 156.515 303.221,145.207 305.664,135.057 302.494 C 129.279 300.690,129.285 300.486,135.304 294.745 C 143.957 286.491,149.164 285.153,157.553 289.029 M181.711 304.784 C 181.915 310.471,182.253 320.025,182.462 326.016 L 182.843 336.909 178.613 337.869 C 167.208 340.456,126.843 341.377,110.494 339.423 C 102.467 338.464,103.051 339.136,104.275 332.269 C 104.729 329.725,104.769 327.220,104.395 324.861 C 104.084 322.900,103.871 321.280,103.921 321.260 C 106.372 320.289,118.126 311.471,122.600 307.248 L 128.704 301.486 132.242 302.915 C 143.369 307.410,156.359 305.176,163.957 297.461 L 166.929 294.444 174.134 294.444 L 181.340 294.444 181.711 304.784 M102.784 322.849 C 103.941 324.722,102.772 337.013,101.353 337.890 C 99.931 338.769,85.929 334.387,82.612 332.025 C 80.145 330.268,80.345 330.002,85.061 328.779 C 87.369 328.181,92.021 326.489,95.400 325.019 C 102.415 321.969,102.267 322.012,102.784 322.849 M249.383 328.662 C 252.269 329.587,255.008 330.464,255.471 330.611 C 258.920 331.708,249.305 335.953,237.525 338.534 C 235.458 338.986,234.634 337.690,233.995 332.980 L 233.549 329.698 238.225 328.186 C 240.797 327.355,243.179 326.743,243.519 326.827 C 243.858 326.911,246.497 327.736,249.383 328.662 M232.834 334.105 C 233.272 336.227,233.633 338.241,233.636 338.580 C 233.652 340.313,201.421 341.889,183.025 341.055 L 172.531 340.580 177.969 339.471 C 180.960 338.861,183.738 338.097,184.142 337.773 C 184.546 337.449,187.377 336.996,190.432 336.766 C 202.694 335.843,228.309 331.773,229.528 330.554 C 230.886 329.196,232.086 330.485,232.834 334.105 " stroke="none" fill="#000000" fill-rule="evenodd"></path></g></svg>