<?xml version="1.0" encoding="UTF-8"?>
<svg version="1.1" xmlns="http://www.w3.org/2000/svg" width="2000" height="572">
<path d="M0 0 C660 0 1320 0 2000 0 C2000 188.76 2000 377.52 2000 572 C1340 572 680 572 0 572 C0 383.24 0 194.48 0 0 Z " fill="#FEFEFE" transform="translate(0,0)"/>
<path d="M0 0 C16.17 0 32.34 0 49 0 C49.33 36.96 49.66 73.92 50 112 C51.98 108.04 53.96 104.08 56 100 C65.8972327 85.18924751 80.55117795 75.65459058 97.75244141 71.58666992 C103.25365682 70.59287796 108.67214278 70.5129226 114.25 70.5625 C115.43005615 70.56862305 116.6101123 70.57474609 117.82592773 70.58105469 C127.12413541 70.7468095 135.21356235 71.94384778 144 75 C144.92296875 75.28875 145.8459375 75.5775 146.796875 75.875 C163.92552359 81.83279082 175.48288803 96.41238018 183.5390625 111.97265625 C191.44999203 129.61451444 193.43336599 149.76450739 193.375 168.875 C193.37412384 169.58455841 193.37324768 170.29411682 193.37234497 171.025177 C193.29067624 191.26743587 190.82994287 210.58913861 182 229 C181.47664063 230.10472656 180.95328125 231.20945312 180.4140625 232.34765625 C172.2445025 247.79011723 158.57726748 258.09289056 142.125 263.4375 C133.18817989 266.03921134 124.42652435 266.18219935 115.1875 266.1875 C114.07568359 266.19974609 112.96386719 266.21199219 111.81835938 266.22460938 C91.86984109 266.25962725 76.79574692 259.54394056 62.10546875 246.1796875 C57.19102086 241.09200305 53.59228864 235.05526499 50 229 C47.78499763 236.47964567 45.98002461 244.0598996 44.12304688 251.63476562 C43.86458984 252.67955078 43.60613281 253.72433594 43.33984375 254.80078125 C43.10644287 255.75122314 42.87304199 256.70166504 42.63256836 257.6809082 C42 260 42 260 41 262 C27.47 262 13.94 262 0 262 C0 175.54 0 89.08 0 0 Z " fill="#010101" transform="translate(1045,145)"/>
<path d="M0 0 C148.52941176 0 148.52941176 0 172 21 C173.12148438 21.98226562 173.12148438 21.98226562 174.265625 22.984375 C183.00352015 31.12785552 189.4856652 41.57841189 193 53 C193.37125 54.1653125 193.7425 55.330625 194.125 56.53125 C199.83905241 76.59511622 199.67832686 101.51034475 192 121 C191.74831055 121.64163086 191.49662109 122.28326172 191.23730469 122.94433594 C182.91333194 143.22551231 166.63481719 155.67352984 147 164 C132.75144294 169.43185942 118.59107326 170.29853905 103.54296875 170.1953125 C102.08679356 170.19236261 100.63061623 170.19032802 99.17443848 170.18920898 C93.84542611 170.17883116 88.51645949 170.15090936 83.1875 170.125 C65.2746875 170.063125 65.2746875 170.063125 47 170 C47 200.36 47 230.72 47 262 C31.49 262 15.98 262 0 262 C0 175.54 0 89.08 0 0 Z " fill="#020202" transform="translate(265,145)"/>
<path d="M0 0 C1.05832031 0.42410156 2.11664062 0.84820312 3.20703125 1.28515625 C10.64353184 4.64327413 16.30145094 9.21241111 22 15 C22.99 15.99193359 22.99 15.99193359 24 17.00390625 C28.79377242 22.11795225 30.67697487 26.35394975 34 33 C34.33 20.79 34.66 8.58 35 -4 C51.17 -4 67.34 -4 84 -4 C84 59.03 84 122.06 84 187 C70.47 187 56.94 187 43 187 C37.19642857 166.10714286 37.19642857 166.10714286 35 157 C33.17733366 159.24328164 31.36996713 161.48664325 29.6796875 163.83203125 C19.11784241 178.46278387 5.05088354 187.98340155 -13 191 C-17.15910542 191.21512614 -21.31613541 191.22810525 -25.48046875 191.24023438 C-27.46626872 191.24983689 -29.45192693 191.28098297 -31.4375 191.3125 C-50.05255426 191.38696022 -65.52378342 186.13222907 -79 173 C-90.72282065 159.96437136 -95.08703617 144.64192983 -99 128 C-99.2371875 127.00613281 -99.474375 126.01226562 -99.71875 124.98828125 C-106.6978054 93.1206827 -103.41841597 53.68535295 -87.046875 25.03515625 C-77.79761316 11.32012486 -64.84189337 0.58812874 -48.44140625 -3.1484375 C-33.02443901 -5.98000694 -14.64797074 -5.89962184 0 0 Z " fill="#010101" transform="translate(720,220)"/>
<path d="M0 0 C1.24136719 -0.00322266 2.48273438 -0.00644531 3.76171875 -0.00976562 C14.4244321 0.05203092 24.04309111 0.90338402 33.5625 5.9375 C34.58537109 6.46754639 34.58537109 6.46754639 35.62890625 7.00830078 C48.67496968 13.9729961 56.90382656 23.12015311 63.5 36.3125 C63.83 24.4325 64.16 12.5525 64.5 0.3125 C80.67 0.3125 96.84 0.3125 113.5 0.3125 C113.5 63.3425 113.5 126.3725 113.5 191.3125 C99.97 191.3125 86.44 191.3125 72.5 191.3125 C65.5 165.0625 65.5 165.0625 65.5 160.3125 C64.84 160.3125 64.18 160.3125 63.5 160.3125 C63.11134766 161.38757813 63.11134766 161.38757813 62.71484375 162.484375 C57.2747272 175.14882639 46.05481746 184.40900004 33.73828125 190.02734375 C13.43996882 198.08300695 -11.31277806 198.71380369 -31.484375 190.02734375 C-49.06426534 181.31024343 -59.26910198 165.72430705 -65.54612732 147.70199585 C-70.71401475 131.97370694 -72.01187433 115.62928362 -71.89111328 99.16552734 C-71.87491415 96.54863113 -71.89114764 93.93325882 -71.91015625 91.31640625 C-71.9231382 80.62071866 -70.89818354 70.74521445 -68.5 60.3125 C-68.35508621 59.66247009 -68.21017242 59.01244019 -68.06086731 58.3427124 C-64.77579473 43.62589762 -59.05880507 29.33565023 -48.5 18.3125 C-47.83613281 17.60867187 -47.17226562 16.90484375 -46.48828125 16.1796875 C-33.64886472 3.69626218 -17.39648866 -0.22581112 0 0 Z " fill="#010101" transform="translate(1540.5,215.6875)"/>
<path d="M0 0 C15.84 0 31.68 0 48 0 C48 36.63 48 73.26 48 111 C48.66 111 49.32 111 50 111 C50.1134375 110.28199219 50.226875 109.56398438 50.34375 108.82421875 C53.18456506 96.59856824 63.06196026 86.30760624 73.26171875 79.59765625 C91.93603919 68.7020827 112.43249998 67.2911277 133.41796875 71.89453125 C139.47437994 73.76363089 144.6934643 76.56972929 150 80 C150.82113281 80.52464844 151.64226562 81.04929687 152.48828125 81.58984375 C168.02185235 92.56260813 175.8020808 111.88762482 179 130 C181.24762022 145.64789796 181.26763824 161.34081107 181.1953125 177.11328125 C181.19157116 179.54949323 181.18872951 181.98570674 181.18673706 184.42192078 C181.1791887 190.75925021 181.15961841 197.09648442 181.1373291 203.43377686 C181.11667846 209.93044752 181.10769472 216.42713393 181.09765625 222.92382812 C181.07636208 235.61593347 181.04125434 248.30794383 181 261 C165.82 261 150.64 261 135 261 C134.97812622 256.1116333 134.97812622 256.1116333 134.95581055 251.12451172 C134.9053074 240.31581854 134.83868498 229.50726706 134.76428509 218.6987133 C134.71969799 212.15022912 134.68041635 205.60180548 134.65356445 199.05322266 C134.62741498 192.72478899 134.58693085 186.39658979 134.53681374 180.06830215 C134.5202235 177.66282204 134.50866069 175.25730145 134.50238609 172.85177231 C134.62881976 145.00360114 134.62881976 145.00360114 121.6875 121 C111.43840422 111.72377645 97.3348266 112.3263039 84.33154297 112.82519531 C75.57272559 113.48187733 68.07935348 117.80594174 62 124 C56.87141076 130.50552565 53.87625619 136.99849278 52 145 C51.74909103 145.97868546 51.49818207 146.95737091 51.2396698 147.9657135 C48.49809264 159.79289409 48.52281973 171.46485441 48.48828125 183.55859375 C48.47140289 185.80160993 48.45324849 188.04461683 48.43388367 190.28761292 C48.38672028 196.14162292 48.35669427 201.9955953 48.33044434 207.84973145 C48.29518097 214.90024634 48.23826555 221.95061684 48.18505096 229.00101471 C48.10693264 239.66732383 48.05602789 250.3334491 48 261 C32.16 261 16.32 261 0 261 C0 174.87 0 88.74 0 0 Z " fill="#000000" transform="translate(1266,146)"/>
<path d="M0 0 C12.54 0 25.08 0 38 0 C38 16.17 38 32.34 38 49 C52.52 49 67.04 49 82 49 C82 59.89 82 70.78 82 82 C67.48 82 52.96 82 38 82 C38 121.93 38 161.86 38 203 C52.85 203 67.7 203 83 203 C83 215.21 83 227.42 83 240 C75.565281 240.09235676 68.13259173 240.17184019 60.69775391 240.21972656 C58.17424739 240.2397109 55.6507864 240.26690771 53.12744141 240.30175781 C17.22566047 240.78480512 17.22566047 240.78480512 4 228 C-5.01840996 216.69002685 -6.15990722 203.28316319 -6.11352539 189.37329102 C-6.11367142 188.2213475 -6.11381744 187.06940399 -6.1139679 185.8825531 C-6.11327338 182.08965141 -6.10550256 178.29679933 -6.09765625 174.50390625 C-6.09579043 171.86832201 -6.0943673 169.23273742 -6.09336853 166.59715271 C-6.09026747 160.37833348 -6.08207067 154.15953195 -6.07201904 147.9407205 C-6.06081976 140.85726131 -6.05533786 133.77380124 -6.05032361 126.69033539 C-6.03988698 112.12687986 -6.0215568 97.56344345 -6 83 C-15.57 83 -25.14 83 -35 83 C-35 71.78 -35 60.56 -35 49 C-26.9375 48.1875 -26.9375 48.1875 -24.44116211 47.95385742 C-19.42377404 47.40411367 -15.55633093 46.16724355 -11 44 C-9.515 43.505 -9.515 43.505 -8 43 C-6.8974827 40.83378132 -6.8974827 40.83378132 -6 38 C-5.505 36.865625 -5.01 35.73125 -4.5 34.5625 C-0.48364574 23.71022964 -0.70600448 11.29607165 0 0 Z " fill="#010101" transform="translate(850,167)"/>
<path d="M0 0 C14.85 0 29.7 0 45 0 C45.875 16.125 45.875 16.125 46.13623047 21.11767578 C46.63583687 30.17529297 47.53492462 39.03877209 49 48 C49.350625 46.7625 49.70125 45.525 50.0625 44.25 C55.72915475 27.51238089 67.60496857 15.11761167 83 7 C97.30356278 0.13361834 109.95942621 0 126 0 C126 17.49 126 34.98 126 53 C111.0625 53.9375 111.0625 53.9375 106.40649414 54.22631836 C89.26365231 55.31778506 71.73977969 56.60791265 59.19921875 69.91015625 C47.8008043 84.13696138 48.68438395 101.44365798 48.5859375 118.734375 C48.56719778 120.82473491 48.54762234 122.91508747 48.5272522 125.00543213 C48.47622105 130.46984502 48.43644114 135.93428236 48.39910889 141.39880371 C48.35179659 147.97533228 48.29032463 154.55174231 48.23126221 161.12817383 C48.14340432 171.0854006 48.07338651 181.04260874 48 191 C32.16 191 16.32 191 0 191 C0 127.97 0 64.94 0 0 Z " fill="#020202" transform="translate(480,216)"/>
<path d="M0 0 C10.1475 -0.061875 20.295 -0.12375 30.75 -0.1875 C33.92979492 -0.21481201 37.10958984 -0.24212402 40.38574219 -0.27026367 C42.93944928 -0.27903522 45.4931606 -0.28667757 48.046875 -0.29296875 C49.9952124 -0.3159906 49.9952124 -0.3159906 51.98291016 -0.33947754 C67.7662772 -0.34395636 83.23231539 3.37147 94.80859375 14.61328125 C103.88785005 24.50174043 106.57041776 34.60854215 106.4375 47.875 C106.42992676 48.93203125 106.42235352 49.9890625 106.41455078 51.078125 C106.11888992 65.06266794 101.99202846 74.36510974 91.9375 84.125 C79.12087613 95.06759651 64.30363633 96.32210539 48.14453125 96.1953125 C46.91714233 96.19329834 45.68975342 96.19128418 44.4251709 96.18920898 C39.88757532 96.17883028 35.35003348 96.15090846 30.8125 96.125 C20.644375 96.08375 10.47625 96.0425 0 96 C0 64.32 0 32.64 0 0 Z " fill="#FEFEFE" transform="translate(313,184)"/>
<path d="M0 0 C11.41396351 8.83661691 15.71158902 21.67588397 17.7421875 35.5234375 C19.92511724 54.18439356 18.24852928 74.98120977 6.8671875 90.5625 C0.18965765 98.46972486 -7.42395654 103.26385092 -17.8203125 104.6875 C-32.5116917 105.91219065 -47.43470325 106.80717341 -59.66796875 97.52734375 C-71.00976847 87.75218111 -77.44028655 75.70158877 -78.8203125 60.6875 C-79.07060072 55.97845411 -79.15926215 51.27770132 -79.1953125 46.5625 C-79.20925049 45.38308838 -79.22318848 44.20367676 -79.23754883 42.98852539 C-79.16400234 29.30983321 -75.85320134 16.40118274 -67.5078125 5.3125 C-49.83325179 -11.95102442 -20.4166633 -13.38797593 0 0 Z " fill="#FDFDFD" transform="translate(1173.8203125,266.3125)"/>
<path d="M0 0 C15.51 0 31.02 0 47 0 C47 63.03 47 126.06 47 191 C31.49 191 15.98 191 0 191 C0 127.97 0 64.94 0 0 Z " fill="#000000" transform="translate(965,216)"/>
<path d="M0 0 C10.28846797 7.57502587 15.0573248 18.76492812 17.4375 31.0625 C20.01801531 51.48330867 20.44095873 76.65006209 7.9375 94.0625 C1.56794021 101.74943143 -6.87650931 106.56315503 -16.84375 107.63037109 C-20.13043514 107.78651896 -23.39726131 107.8201384 -26.6875 107.8125 C-28.33588867 107.85503906 -28.33588867 107.85503906 -30.01757812 107.8984375 C-41.64805203 107.9258517 -51.27532285 104.15410564 -59.6171875 96 C-73.20359472 79.82794434 -73.30313259 56.94761091 -71.68017578 36.90673828 C-70.37050778 24.41266623 -66.4807664 11.29080947 -56.7421875 2.69921875 C-40.34357885 -9.47966424 -17.55072524 -10.6072565 0 0 Z " fill="#FDFDFD" transform="translate(736.875,263.6875)"/>
<path d="M0 0 C1.15048828 -0.01546875 2.30097656 -0.0309375 3.48632812 -0.046875 C15.3283213 0.00679976 23.88322308 2.84899591 32.40625 11.15625 C46.24964152 26.2034147 45.29624107 48.12407751 44.74169922 67.30957031 C43.97330265 80.98996037 40.07170253 96.49787648 29.625 106.03515625 C20.51133362 112.50793067 11.76014723 113.69765346 0.9375 113.75 C-0.10535156 113.770625 -1.14820313 113.79125 -2.22265625 113.8125 C-14.04634305 113.87154463 -23.32808661 110.94694532 -32.15625 102.94140625 C-43.31573655 91.07021775 -45.83248807 73.15496743 -45.6875 57.5625 C-45.68073242 56.50780518 -45.67396484 55.45311035 -45.66699219 54.36645508 C-45.45914345 38.74758908 -42.71424992 21.79279966 -31.1796875 10.23828125 C-21.47690731 2.01068864 -12.57108206 -0.16845671 0 0 Z " fill="#FDFDFD" transform="translate(1560.4375,257.5)"/>
<path d="M0 0 C5.59516738 4.50046072 9.05757567 10.13065388 11 17 C12.07019935 27.16689386 11.14479442 38.26852647 5 46.765625 C-0.01191049 52.36486875 -6.27116593 53.72116977 -13.5 54.26171875 C-22.19213849 54.51582361 -29.89392023 54.19350381 -36.8359375 48.4921875 C-43.13270868 41.88825675 -44.5701384 33.39094576 -44.5 24.5625 C-44.49500488 23.73282715 -44.49000977 22.9031543 -44.48486328 22.04833984 C-44.25526795 13.97450129 -42.1830184 7.74692825 -36.25 2.0625 C-25.62668584 -4.6792186 -11.45727322 -5.45584439 0 0 Z " fill="#6A6A6A" transform="translate(1721,353)"/>
<path d="M0 0 C0.76892578 -0.01611328 1.53785156 -0.03222656 2.33007812 -0.04882812 C9.0325277 -0.0544842 14.51946873 1.25083947 19.9375 5.4375 C26.17183165 13.40359044 27.30010847 21.43281817 26.45361328 31.34082031 C25.64817183 37.30847643 23.71918056 43.02709187 19.1796875 47.125 C13.20706341 51.00389978 7.95691722 51.5454014 1 51.625 C0.17435547 51.65400391 -0.65128906 51.68300781 -1.50195312 51.71289062 C-7.44219778 51.7737442 -11.86062152 50.66941297 -16.8125 47.3125 C-22.35952774 41.76547226 -25.14595741 35.91773707 -25.33154297 28.15917969 C-25.32525879 27.44665039 -25.31897461 26.73412109 -25.3125 26 C-25.30750488 25.25524414 -25.30250977 24.51048828 -25.29736328 23.74316406 C-25.07158968 16.57757706 -23.20583802 11.0433952 -18.3203125 5.671875 C-12.66656328 0.57471249 -7.25708628 -0.0299632 0 0 Z " fill="#020202" transform="translate(987.8125,139.6875)"/>
</svg>
